<svg width="45" height="44" viewBox="0 0 45 44" fill="none" xmlns="http://www.w3.org/2000/svg">
<rect x="1.1283" y="0.5" width="43" height="43" rx="3.5" stroke="white" stroke-opacity="0.1"/>
<g clip-path="url(#clip0_17_126)">
<path d="M36.3333 22.0223C36.3333 14.6623 30.36 8.68896 23 8.68896C15.64 8.68896 9.66663 14.6623 9.66663 22.0223C9.66663 28.4756 14.2533 33.849 20.3333 35.089V26.0223H17.6666V22.0223H20.3333V18.689C20.3333 16.1156 22.4266 14.0223 25 14.0223H28.3333V18.0223H25.6666C24.9333 18.0223 24.3333 18.6223 24.3333 19.3556V22.0223H28.3333V26.0223H24.3333V35.289C31.0666 34.6223 36.3333 28.9423 36.3333 22.0223Z" fill="white"/>
</g>
<defs>
<clipPath id="clip0_17_126">
<rect width="32" height="32" fill="white" transform="translate(7 6.02234)"/>
</clipPath>
</defs>
</svg>
