<svg width="45" height="44" viewBox="0 0 45 44" fill="none" xmlns="http://www.w3.org/2000/svg">
<rect x="0.711914" y="0.5" width="43" height="43" rx="3.5" stroke="white" stroke-opacity="0.1"/>
<path fill-rule="evenodd" clip-rule="evenodd" d="M13.6667 8.66663C10.9053 8.66663 8.66669 10.9052 8.66669 13.6666V30.3333C8.66669 33.0947 10.9053 35.3333 13.6667 35.3333H30.3334C33.0948 35.3333 35.3334 33.0947 35.3334 30.3333V13.6666C35.3334 10.9052 33.0948 8.66663 30.3334 8.66663H13.6667ZM30 15.3333C30.7364 15.3333 31.3334 14.7363 31.3334 14C31.3334 13.2636 30.7364 12.6666 30 12.6666C29.2636 12.6666 28.6667 13.2636 28.6667 14C28.6667 14.7363 29.2636 15.3333 30 15.3333ZM28.6667 22C28.6667 25.6819 25.6819 28.6666 22 28.6666C18.3181 28.6666 15.3334 25.6819 15.3334 22C15.3334 18.3181 18.3181 15.3333 22 15.3333C25.6819 15.3333 28.6667 18.3181 28.6667 22ZM22 26C24.2092 26 26 24.2091 26 22C26 19.7908 24.2092 18 22 18C19.7909 18 18 19.7908 18 22C18 24.2091 19.7909 26 22 26Z" fill="white"/>
</svg>
