<svg width="45" height="44" viewBox="0 0 45 44" fill="none" xmlns="http://www.w3.org/2000/svg">
<path d="M13.3062 8L15.6167 14.328V18.4797H17.5553V14.1297L19.8152 8.00114H17.8411L16.6393 12.1905H16.5177L15.2585 8.00001L13.3062 8ZM22.2952 10.5544C21.5126 10.5544 20.8898 10.733 20.425 11.0876C19.9602 11.44 19.7277 11.9179 19.7277 12.5164V16.5246C19.7277 17.1815 19.9536 17.705 20.4058 18.0924C20.8622 18.4809 21.4627 18.6769 22.22 18.6769C23.004 18.6769 23.6149 18.4874 24.0643 18.1117C24.5095 17.7337 24.7342 17.2146 24.7342 16.5531V12.5597C24.7342 11.9717 24.5043 11.4883 24.0493 11.1161C23.5957 10.7405 23.012 10.5544 22.2952 10.5544ZM26.1998 10.7504V17.2105C26.1998 17.6737 26.2989 18.0175 26.5019 18.2473C26.7049 18.4772 27.0066 18.5914 27.4042 18.5914C27.7262 18.5914 28.0607 18.5063 28.4022 18.3442C28.748 18.1808 29.0784 17.9402 29.3962 17.6252V18.4797H31.1201V10.7504H29.3975V16.618C29.2365 16.7849 29.0589 16.9266 28.8643 17.0339C28.6725 17.1424 28.5105 17.1957 28.3831 17.1957C28.2235 17.1957 28.1031 17.1531 28.0331 17.0726C27.9589 16.991 27.9237 16.8581 27.9237 16.6784V10.7504L26.1998 10.7504ZM22.2159 11.892C22.4441 11.892 22.6283 11.9466 22.7669 12.0493C22.9069 12.1531 22.9788 12.2914 22.9788 12.4583V16.6682C22.9788 16.8759 22.9082 17.0403 22.771 17.1558C22.631 17.2748 22.4497 17.3347 22.2145 17.3347C21.9878 17.3347 21.8113 17.2747 21.6909 17.1604C21.5635 17.0437 21.5009 16.8782 21.5009 16.667C21.5009 16.667 21.5009 12.4583 21.5023 12.4583C21.5023 12.2914 21.5689 12.1531 21.7005 12.0493C21.8321 11.9454 22.0045 11.892 22.2159 11.892ZM21.9985 20.2913C18.6737 20.2878 15.4125 20.3365 12.2262 20.4485C9.99887 20.4485 8.18766 21.9402 8.18766 23.7777C8.05606 25.2314 7.99616 26.6888 8.00036 28.146C7.99476 29.6009 8.05463 31.0582 8.18902 32.5154C8.18902 34.3564 9.99747 35.8469 12.2262 35.8469C15.4125 35.9565 18.6737 36.0042 21.9985 35.9995C25.3262 36.0054 28.5846 35.9565 31.7695 35.8469C33.9982 35.8469 35.8108 34.3564 35.8108 32.5154C35.9438 31.0582 36.0051 29.6009 35.9995 28.146C36.0065 26.6888 35.9452 25.2314 35.8108 23.7777C35.8108 21.939 33.9996 20.4485 31.7695 20.4485C28.5846 20.3377 25.3262 20.289 21.9985 20.2913ZM22.5235 22.6783H24.2379C24.3443 22.6783 24.4307 22.7502 24.4307 22.8389V25.7579C24.5721 25.6506 24.7197 25.5614 24.8723 25.4879C25.1621 25.3537 25.456 25.2862 25.7514 25.2862C26.3505 25.2862 26.8171 25.4736 27.1376 25.8422C27.4442 26.1957 27.5984 26.7054 27.5984 27.3587L27.5997 31.5823C27.5997 32.1598 27.4508 32.6106 27.1568 32.9233C26.853 33.25 26.4153 33.4155 25.8525 33.4155C25.4955 33.4155 25.1662 33.3545 24.8764 33.2332C24.721 33.1667 24.5721 33.0807 24.4307 32.9757V33.1591C24.4307 33.2478 24.3443 33.3187 24.2379 33.3187H22.5235C22.4171 33.3187 22.3321 33.2478 22.3321 33.1591V22.8389C22.3321 22.7502 22.4171 22.6783 22.5235 22.6783ZM10.1714 22.6794H16.0419C16.1483 22.6794 16.2333 22.7514 16.2333 22.84V24.3349C16.2333 24.4235 16.1483 24.4944 16.0419 24.4944H14.2537V33.158C14.2537 33.2467 14.1687 33.3175 14.0623 33.3175H12.1496C12.0432 33.3175 11.9582 33.2467 11.9582 33.158V24.4944H10.1714C10.065 24.4944 9.97998 24.4235 9.97998 24.3349V22.84C9.97998 22.7514 10.065 22.6794 10.1714 22.6794ZM31.2691 25.1905C32.0993 25.1905 32.7501 25.4018 33.2023 25.8194C33.6517 26.2348 33.879 26.8282 33.879 27.5877V29.5315C33.879 29.6201 33.7927 29.6921 33.6863 29.6921H30.6321V30.9659C30.6321 31.4314 30.7072 31.6281 30.7688 31.7133C30.8192 31.7821 30.9116 31.8705 31.1775 31.8705C31.3931 31.8705 31.5394 31.827 31.615 31.7418C31.6514 31.6975 31.7449 31.5212 31.7449 30.9659V30.4349C31.7449 30.3463 31.8299 30.2754 31.9363 30.2754H33.6835C33.7899 30.2754 33.8763 30.3463 33.8763 30.4349V31.008C33.8763 31.8282 33.6422 32.4565 33.1873 32.8789C32.7295 33.3059 32.0395 33.5249 31.1365 33.5249C30.3218 33.5249 29.667 33.2928 29.1952 32.839C28.729 32.3921 28.4925 31.7758 28.4925 31.0069V27.5889C28.4925 26.8888 28.7539 26.3096 29.2676 25.8639C29.7828 25.417 30.4558 25.1905 31.2691 25.1905ZM16.02 25.3842H17.7208C17.8271 25.3842 17.9122 25.4551 17.9122 25.5437V31.3783C17.9122 31.5697 17.9539 31.6488 17.9805 31.678C17.9917 31.6908 18.0263 31.7315 18.1705 31.7315C18.2195 31.7315 18.3326 31.7137 18.5342 31.5994C18.698 31.5072 18.8442 31.3962 18.9758 31.2655V25.5437C18.9758 25.4551 19.0608 25.3842 19.1672 25.3842H20.8679C20.9743 25.3842 21.0593 25.4551 21.0593 25.5437V33.1569H21.0621V33.158C21.0621 33.2467 20.9771 33.3175 20.8707 33.3175H19.1699C19.0635 33.3175 18.9785 33.2467 18.9785 33.158V32.725C18.7517 32.9082 18.5247 33.054 18.2895 33.1648C17.9199 33.3422 17.5665 33.4292 17.2081 33.4292C16.7531 33.4292 16.4015 33.2919 16.1663 33.0224C15.9437 32.7669 15.8286 32.3912 15.8286 31.907V25.5437C15.8286 25.4551 15.9136 25.3842 16.02 25.3842ZM25.0568 26.8198C24.9447 26.8033 24.8127 26.8196 24.6727 26.8779C24.5929 26.9106 24.5147 26.9606 24.4321 27.0306V31.6449C24.5343 31.7313 24.635 31.7955 24.7274 31.8352C24.831 31.8784 24.9352 31.899 25.05 31.899C25.267 31.899 25.3339 31.8267 25.3549 31.8022C25.4081 31.7462 25.4656 31.6304 25.4656 31.3772V27.4464C25.4656 27.2283 25.4172 27.058 25.3234 26.9554C25.2611 26.8848 25.169 26.8363 25.0568 26.8198ZM31.194 26.8471C30.9896 26.8471 30.8487 26.8927 30.7647 26.9884C30.7045 27.0584 30.6321 27.2228 30.6321 27.5786V28.1882H31.7449V27.5786C31.7449 27.2286 31.6671 27.0632 31.6027 26.985C31.5243 26.8917 31.3899 26.8471 31.194 26.8471Z" fill="white"/>
<rect x="0.920044" y="0.5" width="43" height="43" rx="3.5" stroke="white" stroke-opacity="0.1"/>
</svg>
