<svg width="32" height="32" viewBox="0 0 32 32" fill="none" xmlns="http://www.w3.org/2000/svg">
<path d="M7.712 22.8571L14.4 26.3314V30.4762H3.2C1.424 30.4762 0 29.12 0 27.4286V3.04762C0 2.23934 0.337142 1.46417 0.937258 0.892627C1.53737 0.321087 2.35131 0 3.2 0H4.8V10.6667L8.8 8.38095L12.8 10.6667V0H22.4C23.2487 0 24.0626 0.321087 24.6627 0.892627C25.2629 1.46417 25.6 2.23934 25.6 3.04762V16.061L23.2 14.8114L7.712 22.8571ZM32 22.8571L23.2 18.2857L14.4 22.8571L23.2 27.4286L32 22.8571ZM17.6 26.0419V29.0895L23.2 32L28.8 29.0895V26.0419L23.2 28.9524L17.6 26.0419Z" fill="white"/>
</svg>
