<svg width="32" height="32" viewBox="0 0 32 32" fill="none" xmlns="http://www.w3.org/2000/svg">
<path d="M29.162 4.25202C29.822 5.03202 30.384 5.89602 30.83 6.82601C30.459 7.19861 30.0179 7.49415 29.5322 7.69563C29.0466 7.89711 28.5258 8.00056 28 8.00001C27.2852 8.00117 26.5833 7.8098 25.968 7.44601L29.162 4.25202ZM27.748 2.83602L24.554 6.03201C24.1014 5.26821 23.9166 4.37522 24.0289 3.49453C24.1412 2.61383 24.5442 1.79579 25.174 1.17002C26.104 1.61602 26.968 2.17802 27.748 2.83602ZM32 12C32.001 10.9257 31.8577 9.85616 31.574 8.82001C30.574 9.56001 29.338 10 28 10C26.7532 10.0021 25.537 9.61399 24.522 8.89001L22.414 11L30.02 18.606C31.27 16.71 32 14.44 32 12ZM22 4.00002C22 2.66002 22.438 1.42402 23.18 0.426018C22.1438 0.142457 21.0743 -0.00082041 20 1.84565e-05C17.6512 -0.00411051 15.3533 0.684623 13.394 1.98002L21 9.58601L23.108 7.47601C22.3852 6.46123 21.9978 5.24587 22 4.00002ZM19.414 14C21.7705 16.6267 23.2996 19.8903 23.81 23.382C25.7039 22.7467 27.4094 21.6488 28.772 20.188L21 12.414L19.414 14ZM19.586 11L18 12.584C15.3738 10.2279 12.111 8.69878 8.62 8.18801C9.25565 6.2948 10.3534 4.59003 11.814 3.22802L19.586 11ZM3 10C2.20435 10 1.44129 10.3161 0.87868 10.8787C0.316071 11.4413 0 12.2044 0 13V16C0 20.2435 1.68571 24.3131 4.68629 27.3137C7.68687 30.3143 11.7565 32 16 32H19C19.7956 32 20.5587 31.6839 21.1213 31.1213C21.6839 30.5587 22 29.7957 22 29V26C22 21.7565 20.3143 17.6869 17.3137 14.6863C14.3131 11.6857 10.2435 10 6 10H3ZM8.292 18.292C8.38489 18.1989 8.49524 18.125 8.61673 18.0746C8.73822 18.0242 8.86846 17.9982 9 17.9982C9.13153 17.9982 9.26178 18.0242 9.38327 18.0746C9.50476 18.125 9.61511 18.1989 9.708 18.292L13.708 22.292C13.8958 22.4798 14.0013 22.7345 14.0013 23C14.0013 23.2656 13.8958 23.5202 13.708 23.708C13.5202 23.8958 13.2655 24.0013 13 24.0013C12.7344 24.0013 12.4798 23.8958 12.292 23.708L8.292 19.708C8.19887 19.6151 8.12499 19.5048 8.07457 19.3833C8.02416 19.2618 7.99821 19.1315 7.99821 19C7.99821 18.8685 8.02416 18.7382 8.07457 18.6167C8.12499 18.4953 8.19887 18.3849 8.292 18.292Z" fill="white"/>
</svg>
