<svg width="40" height="41" viewBox="0 0 40 41" fill="none" xmlns="http://www.w3.org/2000/svg">
<path d="M13.2766 0.583032C12.0103 1.61833 11.247 3.03211 10.6616 4.58911C10.1432 5.96787 9.80535 7.40103 9.64823 8.8826C9.41853 11.0485 9.76628 13.1154 10.5178 15.1209C11.1265 16.7448 12.071 18.1168 13.0568 19.4618C13.958 20.6917 14.9096 21.8732 15.8973 23.0186C16.1697 23.3345 16.1697 23.3331 15.9409 23.6762C15.3018 24.6345 14.7602 25.6478 14.5014 26.821C14.4872 26.8851 14.4532 26.9438 14.4127 27.0439C10.9845 24.2494 7.79549 21.2432 5.87002 16.9069C5.95732 17.4694 6.18832 17.9503 6.40544 18.4373C7.37398 20.6098 8.57065 22.6047 10.1148 24.3317C10.9972 25.3186 12.0411 26.0704 13.0634 26.8544C13.3896 27.1046 13.7228 27.3437 14.0498 27.5927C14.2081 27.7132 14.2785 27.8445 14.258 28.0998C14.1406 29.5592 14.4277 30.9323 15.036 32.2312C15.4623 33.1413 16.0137 33.9496 16.6099 34.7255C16.6378 34.7618 16.6463 34.8164 16.7019 34.8252C16.4513 34.3633 16.1802 33.9257 15.9266 33.4751C15.2673 32.3036 14.7416 31.0704 14.59 29.6838C14.4327 28.2447 14.6487 26.8666 15.1955 25.5459C15.9351 23.7592 17.0805 22.3554 18.4535 21.144C19.3788 20.3276 20.3746 19.618 21.2883 18.7858C22.13 18.0191 22.812 17.1214 23.1014 15.9315C23.3293 14.9948 23.2729 14.1079 22.5899 13.3826C21.8494 12.5962 20.5826 12.6728 19.9688 13.582C19.5854 14.1501 19.1409 14.6097 18.5743 14.943C17.8791 15.3518 17.5193 16.1031 17.1185 16.8042C16.854 17.267 16.6035 17.7399 16.2946 18.1691C16.1621 18.3533 16.0178 18.5288 15.8184 18.6253C15.6677 18.6982 15.5168 18.7936 15.3492 18.6479C15.1879 18.5077 15.1656 18.3153 15.185 18.1203C15.2258 17.71 15.3578 17.3242 15.4749 16.9349C15.6707 16.2835 15.8105 15.6221 15.8009 14.9274C15.7977 14.6905 15.7474 14.4817 15.6253 14.2954C14.8402 13.0979 14.8648 11.8016 15.3196 10.5008C15.8911 8.86603 17.0588 7.93386 18.5376 7.50997C20.7946 6.86303 22.8628 7.40334 24.7351 8.91658C26.3637 10.2328 27.2984 12.0394 27.6663 14.2056C28.0122 16.2431 27.6246 18.1651 26.7939 19.9973C26.3999 20.8664 25.8912 21.6533 25.4073 22.4586C25.3609 22.5358 25.2843 22.5959 25.2759 22.781C25.5034 22.4829 25.7029 22.2423 25.8815 21.9838C26.818 20.6291 27.5295 19.1142 28.3563 17.6811C29.2627 16.11 29.9214 14.4211 30.2623 12.5913C30.4646 11.5055 30.4897 10.4076 30.4143 9.29855C30.2511 6.89703 29.5427 4.7005 28.4296 2.65763C27.8511 1.59589 27.0918 0.716801 26.0794 0.14197C26.033 0.115611 25.9787 0.0980326 25.9771 0C27.9294 0.354866 29.5042 1.43384 30.8167 3.03102C32.1226 4.62015 32.8297 6.53881 33.3137 8.59152C33.6829 5.77135 33.5573 3.06196 31.8799 0.677923C32.0301 0.643102 32.0946 0.737474 32.1718 0.790869C33.8726 1.96781 34.9563 3.66932 35.5585 5.76301C35.9345 7.07026 36.137 8.41158 36.1591 9.79128C36.1815 11.1871 36.0806 12.5627 35.7952 13.9221C35.7743 14.0221 35.7408 14.1292 35.7916 14.2381C35.8932 14.2218 35.9057 14.1205 35.9366 14.0481C36.637 12.409 37.2404 10.729 37.5053 8.92968C37.7132 7.51726 37.692 6.10831 37.2487 4.73813C37.2315 4.68496 37.201 4.63137 37.2336 4.56769C37.3268 4.53661 37.3503 4.63306 37.3891 4.68514C38.3869 6.02473 38.9568 7.56851 39.1719 9.28346C39.5283 12.1256 39.144 14.8556 38.1258 17.4753C37.4152 19.3037 36.4116 20.9127 35.0446 22.2246C34.9503 22.3151 34.8286 22.3907 34.783 22.607C36.1378 22.0339 37.1954 21.1019 38.0968 19.9247C39.0064 18.7367 39.5403 17.3497 39.8401 15.8418C39.969 15.8824 39.9482 15.9735 39.9539 16.0462C40.1763 18.8811 39.5999 21.4838 38.0899 23.8018C36.8215 25.7491 35.1509 27.1555 33.2176 28.2036C32.3446 28.6768 31.4416 29.0646 30.5321 29.4374C30.4509 29.4706 30.3717 29.5099 30.2999 29.585C31.3823 29.5211 32.444 29.3483 33.4606 28.9025C34.4817 28.4548 35.4116 27.8246 36.332 27.1487C36.2444 27.5113 36.086 27.8325 35.9153 28.1409C35.0465 29.7094 33.8759 30.9444 32.5082 31.9743C31.0618 33.0635 29.422 33.6269 27.7844 34.2075C25.9044 34.8741 24.1418 35.7924 22.6274 37.2278C21.6397 38.164 20.8251 39.2616 20.1796 40.5133C20.1578 40.5555 20.1372 40.5986 20.1125 40.6386C20.1038 40.6527 20.0846 40.6587 20.0666 40.6708C19.9475 40.6027 19.9141 40.4616 19.8545 40.3462C18.9146 38.5261 17.5749 37.1573 15.9779 36.0675C14.438 35.0166 12.7484 34.378 11.0374 33.7871C9.4426 33.2363 7.95224 32.4498 6.63368 31.2947C5.4497 30.2574 4.4752 29.0218 3.76429 27.5389C3.71534 27.4368 3.6759 27.3291 3.6554 27.1885C4.56519 27.8701 5.49774 28.4913 6.52114 28.9289C7.55639 29.3715 8.63292 29.5502 9.78874 29.628C9.68668 29.4897 9.59831 29.4669 9.51121 29.4338C7.98893 28.8568 6.50501 28.1818 5.15278 27.2011C3.17073 25.7636 1.64154 23.8856 0.712627 21.4449C0.37545 20.559 0.172626 19.6337 0.0726743 18.6758C-0.0179265 17.8076 -0.0142332 16.9413 0.0316175 16.0724C0.0350428 16.0075 0.0265491 15.9373 0.12296 15.8373C0.729362 19.0092 2.39135 21.1945 4.99473 22.5661C5.05807 22.3755 4.96556 22.3264 4.90574 22.2659C2.74466 20.0822 1.50681 17.3392 0.9383 14.1919C0.70322 12.8904 0.650672 11.5715 0.723513 10.253C0.831799 8.29295 1.31821 6.46591 2.4195 4.88642C2.50719 4.76066 2.57547 4.60799 2.76521 4.51246C2.68745 4.85499 2.61613 5.15231 2.55263 5.45167C2.14595 7.36916 2.38542 9.23018 2.95069 11.0635C3.24781 12.0271 3.59312 12.9687 3.98623 13.8885C4.03266 13.9972 4.05386 14.1336 4.20685 14.2035C4.24417 13.8439 4.14145 13.5174 4.08464 13.1961C3.88696 12.0781 3.79693 10.951 3.84439 9.81657C3.92069 7.99281 4.16397 6.20154 4.86216 4.52399C5.51851 2.94696 6.49483 1.67632 7.83449 0.761815C7.90872 0.711144 7.97858 0.651487 8.12913 0.657066C7.30558 1.80281 6.81281 3.07997 6.62891 4.49129C6.44859 5.8751 6.45721 7.26099 6.65121 8.69582C6.79892 8.51143 6.8071 8.3388 6.841 8.18202C7.25486 6.26822 7.96614 4.5194 9.16515 3.04638C10.4299 1.49261 11.9541 0.424448 13.8294 0.0301035C13.8812 0.0192225 13.9334 0.0102589 13.9858 0.00486994C14.0011 0.00330218 14.0176 0.0172747 14.1122 0.0579705C13.7998 0.229746 13.5305 0.374412 13.2766 0.583032ZM8.34762 13.8688C8.23171 13.4585 8.11579 13.0483 7.99987 12.638C8.08823 13.0739 8.14395 13.5216 8.35582 13.9583C8.407 14.1348 8.45154 14.314 8.51044 14.4872C8.91597 15.6798 9.47625 16.7891 10.0108 17.9122C10.0533 18.0016 10.1346 18.0753 10.1238 18.1477C9.75546 17.8015 9.37453 17.4434 8.99361 17.0854C10.0684 18.5983 11.2332 20.0208 12.5035 21.3403C12.2941 20.9299 12.0441 20.557 11.7938 20.1844C10.7449 18.6224 9.76692 17.0098 8.93613 15.2905C8.71964 14.8425 8.59538 14.3475 8.34762 13.8688ZM26.4419 15.322C26.4916 14.742 26.4141 14.171 26.2868 13.6157C25.8337 11.6395 24.8229 10.1252 23.203 9.13338C21.5242 8.10544 19.7808 7.92186 17.9916 8.71388C16.7578 9.26005 15.9301 10.2299 15.6987 11.7298C15.6369 12.1304 15.6464 12.5375 15.751 12.9796C16.1235 11.7826 17.0848 11.5613 17.9896 11.2025C18.0438 11.6766 17.8644 12.025 17.6232 12.3486C17.5057 12.5061 17.3556 12.6319 17.2728 12.8233C17.1694 13.0623 17.2005 13.2874 17.3396 13.484C17.4808 13.6836 17.6714 13.7525 17.9051 13.6859C18.4894 13.5193 18.9056 13.1235 19.1745 12.5383C19.3773 12.097 19.6156 11.6912 19.9623 11.3736C20.7175 10.6816 22.1306 10.6171 23.0955 11.1901C24.6244 12.0981 25.138 13.9499 24.8452 15.5852C24.6104 16.8962 23.9678 17.9366 23.1165 18.8421C22.2651 19.7477 21.2636 20.4312 20.3059 21.1792C19.1136 22.1105 18.0548 23.1869 17.245 24.5487C16.4819 25.832 16.0015 27.2186 15.9428 28.7654C15.8984 29.9347 16.1773 31.0259 16.6231 32.073C16.6457 32.126 16.6657 32.1806 16.6917 32.2315C16.7168 32.2807 16.7481 32.326 16.8203 32.4446C16.577 31.2216 16.4724 30.0879 16.6371 28.9261C16.7752 27.9528 17.4076 25.976 17.7318 25.7403C17.1817 27.3887 17.0216 29.0583 17.251 30.785C17.4348 32.1687 18.5397 34.9121 18.9979 35.4856C18.6101 34.2403 18.2663 32.9826 18.2197 31.647C18.1668 30.126 18.4433 28.1333 18.7917 27.7775C18.746 28.1769 18.6946 28.5499 18.6623 28.9248C18.5966 29.6873 18.6038 30.4564 18.7305 31.2044C19.0275 32.9589 19.6797 34.5749 20.3989 36.1587C20.4754 36.3273 20.5342 36.515 20.6835 36.6412C20.749 36.5437 20.7013 36.4641 20.686 36.3822C20.541 35.6087 20.3557 34.8458 20.2161 34.0702C19.8819 32.2119 19.818 30.3444 20.0963 28.4794C20.4903 25.8392 21.5887 23.5926 23.3128 21.7235C23.3691 21.6625 23.4224 21.5604 23.5417 21.6299C23.5275 21.6678 23.521 21.7082 23.5006 21.7359C22.9356 22.503 22.4485 23.3286 22.0052 24.187C21.0497 26.0371 20.4327 28.0054 20.3331 30.1505C20.2771 31.3566 20.3755 32.5502 20.614 33.7277C20.667 33.9894 20.6918 34.2708 20.8899 34.5434C20.8722 33.9829 20.8597 33.4857 20.8446 32.988C20.8018 31.5811 20.8275 30.1801 21.0226 28.7793C21.2934 26.8345 21.8894 25.0365 22.8283 23.3774C23.4429 22.2912 24.2206 21.3342 24.8715 20.276C25.7819 18.7963 26.404 17.2009 26.4419 15.322ZM24.5136 28.2399C24.3663 28.3943 24.2113 28.5418 24.1414 28.7768C25.832 27.051 27.9338 26.0616 29.879 24.7897C29.3279 24.882 28.8595 25.2272 28.4052 25.3593C28.628 25.0794 28.8846 24.7529 29.1455 24.4306C29.4045 24.1106 29.6713 23.7984 29.9281 23.4763C30.1814 23.1586 30.4436 22.847 30.624 22.4651C30.498 22.6465 30.313 22.7502 30.1769 22.9137C29.1309 24.1699 27.9257 25.2154 26.6748 26.2059C25.9152 26.8073 25.1887 27.4603 24.5136 28.2399ZM24.322 32.2577C23.6285 32.9786 23.0015 33.7596 22.535 34.6866C22.5812 34.6565 22.6125 34.6121 22.6446 34.5685C23.5139 33.3893 24.4937 32.3441 25.6348 31.488C26.8083 30.6076 28.0773 29.9353 29.3774 29.3268C29.6803 29.185 29.9781 29.0296 30.3177 28.8608C30.1115 28.7547 29.97 28.8404 29.8351 28.8852C27.7918 29.5646 25.9441 30.6417 24.322 32.2577ZM30.6792 16.8209C30.8409 16.429 31.0544 16.0603 31.1101 15.6165C30.5121 16.7507 29.9609 17.9117 29.3072 19.0072C28.6551 20.0999 27.8785 21.0858 27.1762 22.1357C28.5787 20.6995 29.8066 19.0918 30.9886 17.4379C30.6 17.6538 30.3744 18.0706 30.0138 18.3268C30.2306 17.8384 30.4474 17.35 30.6792 16.8209ZM10.7643 28.8894C11.6675 29.5172 12.6397 29.9843 13.6301 30.4097C12.6538 29.669 11.5842 29.1357 10.4454 28.5871C10.5394 28.7739 10.6482 28.8032 10.7643 28.8894Z" fill="url(#paint0_linear_13_109)"/>
<defs>
<linearGradient id="paint0_linear_13_109" x1="20" y1="0" x2="20" y2="40.6708" gradientUnits="userSpaceOnUse">
<stop stop-color="#3DDEED"/>
<stop offset="1" stop-color="white"/>
</linearGradient>
</defs>
</svg>
