<svg width="40" height="40" viewBox="0 0 40 40" fill="none" xmlns="http://www.w3.org/2000/svg">
<path d="M0.0439216 20.9909C-0.0449904 19.9611 0.0123306 18.9553 0.115703 17.9514C0.286203 16.2957 0.654082 14.6847 1.22843 13.1193C2.21343 10.4346 3.72272 8.07827 5.71297 6.01947C8.13358 3.51549 11.0457 1.82116 14.3833 0.822918C16.0784 0.315951 17.8104 0.042987 19.5789 0.00507376C24.081 -0.091438 28.1623 1.18914 31.7791 3.82766C35.7085 6.69423 38.2201 10.536 39.4432 15.2134C39.7885 16.5337 39.9572 17.8806 39.9923 19.2411C40.1171 24.0822 38.7242 28.4488 35.7476 32.2908C33.4102 35.3076 30.4259 37.4704 26.8152 38.7759C25.0454 39.4158 23.2288 39.8244 21.3474 39.9526C17.8513 40.191 14.5354 39.5276 11.3885 38.0107C7.35057 36.0645 4.32397 33.086 2.25445 29.1469C1.14083 27.0273 0.484383 24.7602 0.165613 22.3955C0.103824 21.9372 0.0840203 21.4733 0.0439216 20.9909ZM11.9014 17.6998C11.8944 17.6854 11.8873 17.671 11.8803 17.6566C11.8722 17.6656 11.864 17.6746 11.8322 17.6869C11.824 17.6998 11.8159 17.7127 11.7777 17.7335C11.1633 18.2006 10.3847 18.5172 10.1754 18.4101C10.3455 18.2848 10.5266 18.1513 10.7227 18.0069C10.0349 18.15 9.38917 18.2843 8.7632 18.4146C8.74378 18.3979 8.7573 18.4126 8.77364 18.4231C10.002 19.2095 11.328 19.6011 12.7981 19.3876C13.3254 19.311 13.5974 19.0269 13.6027 18.5973C13.5012 18.6283 13.3951 18.6606 13.2676 18.6994C13.4561 18.4701 13.6393 18.2819 13.7799 18.0663C13.9257 17.8428 14.0302 17.5928 14.1666 17.3323C14.1635 17.3203 14.1604 17.3084 14.1574 17.2964C14.1439 17.3059 14.1303 17.3155 14.0883 17.3353C13.5092 18.0254 12.7943 18.4853 11.8904 18.6262C12.3994 18.3395 12.7948 17.9457 13.0718 17.4313C12.4967 17.9073 11.894 18.328 11.1484 18.5092C11.1484 18.5092 11.1341 18.4923 11.1467 18.4646C11.3831 18.228 11.6196 17.9914 11.8697 17.7466C11.8783 17.7396 11.8838 17.7307 11.9014 17.6998ZM38.4497 20.0133C38.4497 20.2401 38.4497 20.467 38.4497 20.6938C38.4758 20.694 38.5019 20.6943 38.528 20.6945C38.528 20.4398 38.528 20.1851 38.5322 19.8894C38.5318 19.7096 38.5313 19.5298 38.5391 19.3087C38.5183 18.7562 38.5232 18.2013 38.4718 17.6516C38.3342 16.179 37.9545 14.761 37.4114 13.3872C35.6728 8.98961 32.7372 5.63687 28.521 3.41541C27.1614 2.69906 25.7481 2.11192 24.224 1.83028C23.9028 1.77094 23.5763 1.74048 23.2522 1.69671C23.6587 1.85166 24.0702 1.9598 24.4786 2.07835C26.4381 2.64708 28.2894 3.45858 29.9848 4.58952C32.6321 6.35545 34.708 8.64319 36.2114 11.4371C37.2809 13.4247 37.9725 15.5351 38.2673 17.7706C38.3384 18.3104 38.3928 18.8523 38.4476 19.4345C38.4517 19.6135 38.4558 19.7925 38.4497 20.0133ZM18.4098 29.9023C18.4177 29.9091 18.4256 29.9159 18.4401 29.9444C18.7625 30.325 19.085 30.7056 19.4472 31.1332C19.2928 30.6307 19.0951 30.205 18.8562 29.7596C18.6838 29.4052 18.5114 29.0508 18.3208 28.659C18.3893 28.6961 18.4331 28.7072 18.4578 28.735C19.1344 29.4974 19.8275 30.2463 20.4789 31.0293C21.176 31.8673 21.6696 32.8212 21.9273 33.8828C22.0238 34.2803 22.0826 34.6869 22.17 35.1496C22.7272 33.4946 22.7908 31.9014 22.1581 30.307C21.5614 28.8034 20.4733 27.7347 19.0963 26.9126C19.4439 27.5285 19.8328 28.1167 20.1997 28.7182C20.5102 29.2273 20.7973 29.7506 21.0886 30.2711C21.125 30.3362 21.1233 30.4223 21.1392 30.4987C21.0731 30.4492 21.0391 30.3936 21.0065 30.3372C20.6641 29.7468 20.1785 29.2764 19.6984 28.8019C19.0011 28.1127 18.3614 27.3813 17.9984 26.4559C17.8722 26.1341 17.7771 25.8003 17.6678 25.472C17.6471 25.4736 17.6263 25.4752 17.6056 25.4768C17.6538 26.0193 17.702 26.5618 17.7519 27.1225C17.0616 26.1165 16.7647 24.9971 16.6375 23.8188C16.0724 25.4675 16.4597 26.9767 17.3328 28.4444C17.3612 28.4819 17.3896 28.5194 17.4249 28.5855C17.4535 28.6252 17.4821 28.665 17.5135 28.7342C17.8093 29.113 18.1052 29.4919 18.4034 29.8697C18.4034 29.8697 18.4053 29.8716 18.4098 29.9023ZM13.8966 34.6419C13.8044 35.6332 13.3142 36.373 12.3985 36.9088C12.5329 36.8863 12.606 36.8797 12.676 36.8614C13.328 36.6907 13.764 36.2727 13.9293 35.6388C14.0185 35.2969 13.9727 34.9203 13.994 34.5233C13.973 34.4271 13.952 34.3309 13.931 34.2347C13.9217 34.2364 13.9124 34.2382 13.9032 34.24C13.9032 34.3615 13.9032 34.483 13.8966 34.6419ZM9.64306 26.0574C9.6517 26.0687 9.66035 26.0801 9.66899 26.0914C9.67414 26.0811 9.68594 26.0643 9.68325 26.0616C9.67323 26.0514 9.65847 26.0459 9.65973 26.004C9.22754 24.5092 9.59488 23.1252 10.3082 21.7323C9.6397 22.3336 8.95539 23.4882 9.04798 24.5883C9.09419 25.1373 9.27041 25.6252 9.64306 26.0574ZM17.4122 29.8549C17.428 29.8622 17.4437 29.8694 17.4595 29.8767C17.4485 29.8517 17.4375 29.8268 17.4233 29.7702C17.4096 29.7443 17.3983 29.7168 17.382 29.6928C16.5559 28.4813 15.9461 27.1815 15.7431 25.7178C15.6889 25.3268 15.6498 24.9338 15.5999 24.5089C15.3149 25.2872 15.2554 26.0537 15.4139 26.8278C15.6715 28.0863 16.4217 29.0349 17.4122 29.8549ZM24.3156 12.6508C24.4462 12.5175 24.5784 12.3857 24.7071 12.2506C25.2435 11.6872 25.7665 11.1122 26.1277 10.4164C26.3888 9.91357 26.5437 9.38555 26.4661 8.79732C26.28 8.76923 26.1028 8.74249 25.8997 8.6959C25.3801 8.54908 24.9301 8.29415 24.5981 7.85002C24.09 8.23433 23.5997 8.61713 23.0969 8.98295C22.2474 9.60087 21.3991 10.2211 20.5327 10.815C19.9754 11.197 19.357 11.3395 18.6667 11.2118C18.2042 11.1262 17.7246 11.1096 17.2523 11.1064C16.9366 11.1042 16.6204 11.1798 16.3044 11.2206C16.3066 11.2386 16.3088 11.2565 16.3109 11.2745C16.4036 11.2945 16.4962 11.3146 16.6201 11.3413C15.688 11.4291 14.5008 11.8854 14.0491 12.3511C14.6877 12.0923 15.2767 11.8776 15.9128 11.9238C15.3049 12.1663 14.6916 12.381 14.0885 12.6209C13.4647 12.8691 12.9589 13.2869 12.5175 13.7975C13.4279 13.1875 14.3921 12.7185 15.5126 12.646C14.951 12.8786 14.4002 13.1245 13.9509 13.5384C13.9586 13.5576 13.9663 13.5768 13.974 13.596C14.4808 13.4272 14.9875 13.2585 15.4943 13.0897C15.5033 13.1117 15.5124 13.1337 15.5215 13.1557C14.8566 13.5312 14.245 13.9707 13.7422 14.5834C13.7393 14.6001 13.7364 14.6168 13.7335 14.6334C13.7608 14.6236 13.7882 14.6137 13.8457 14.5969C14.3682 14.2868 14.8908 13.9767 15.4271 13.6877C15.4326 13.694 15.4382 13.7004 15.4309 13.7342C14.7003 14.2807 14.3263 15.041 14.1153 15.899C14.2412 15.7463 14.3341 15.5737 14.4376 15.4077C14.5404 15.2428 14.647 15.0792 14.7648 14.9247C14.8771 14.7774 15.0061 14.6426 15.1645 14.4599C14.9442 15.0672 14.7492 15.6045 14.5543 16.1418C14.5808 16.1543 14.6074 16.1667 14.634 16.1791C14.971 15.5401 15.2774 14.8803 15.8272 14.3377C15.652 14.8497 15.4923 15.3168 15.3325 15.7838C15.3564 15.7936 15.3804 15.8035 15.4043 15.8133C15.6241 15.4075 15.8439 15.0017 16.0637 14.5959C16.0822 14.6052 16.1007 14.6145 16.1191 14.6237C16.0864 14.7426 16.0374 14.8599 16.0256 14.9808C16.0138 15.1019 16.039 15.2267 16.0495 15.3704C16.2692 15.2605 16.4553 15.1675 16.6644 15.0959C16.6723 15.1028 16.6802 15.1096 16.6686 15.1393C15.5187 16.1802 14.7734 17.4672 14.3531 18.9421C13.971 20.283 13.9914 21.642 14.24 23.0025C14.3045 23.3554 14.3977 23.7032 14.4777 24.0534C14.493 24.0521 14.5082 24.0509 14.5235 24.0496C14.8384 23.2206 15.1534 22.3915 15.4552 21.5971C15.4552 22.0665 15.4552 22.5819 15.4552 23.1548C15.5212 22.9764 15.5936 22.8503 15.6127 22.7167C15.6978 22.1203 15.8095 21.5235 15.8347 20.9236C15.8978 19.4251 16.2916 18.0285 17.0309 16.7243C17.0549 16.6819 17.091 16.6463 17.1049 16.6286C16.9553 17.4478 16.7843 18.2712 16.6593 19.1014C16.5349 19.9273 16.5563 20.757 16.6969 21.6401C16.83 20.7446 16.9532 19.9153 17.0764 19.086C17.1008 19.0889 17.1252 19.0918 17.1496 19.0948C17.103 19.7343 17.0607 20.3736 17.2058 21.0136C17.385 19.7124 17.6935 18.4634 18.4999 17.3868C18.2052 18.315 17.9903 19.2537 18.021 20.2669C18.3735 19.4919 18.375 18.6361 18.819 17.9262C18.6715 18.4614 18.5962 18.9995 18.6625 19.5714C18.7341 19.5039 18.7901 19.451 18.8461 19.3982C18.8441 19.5037 18.8128 19.5921 18.7694 19.6742C18.0831 20.9724 17.744 22.3358 18.0148 23.8026C18.1866 24.7335 18.5738 25.5735 19.1921 26.3368C19.4333 26.5888 19.6746 26.8408 19.9158 27.0927C19.9324 27.0812 19.9491 27.0696 19.9658 27.0581C19.8311 26.7611 19.6964 26.4642 19.5518 26.1292C19.527 25.9527 19.4978 25.7766 19.4782 25.5995C19.4234 25.1059 19.3725 24.6119 19.3201 24.1181C19.3428 24.1146 19.3656 24.1112 19.3883 24.1078C19.4068 24.1675 19.4285 24.2265 19.4434 24.2871C19.671 25.212 20.0474 26.0713 20.6524 26.8135C21.002 27.2424 21.392 27.64 21.7781 28.0381C22.7874 29.0785 23.5241 30.2562 23.7107 31.7206C23.7269 31.8471 23.7589 31.9715 23.7835 32.0969C24.2373 29.7924 23.3983 27.8244 22.2035 25.9395C23.269 26.6365 23.9943 27.5998 24.4714 28.7696C24.4513 28.374 24.4216 27.9865 24.3595 27.6042C24.2047 26.6519 23.8172 25.7753 23.4401 24.8957C23.082 24.0601 22.8351 23.2045 23.0314 22.2841C23.0804 22.0544 23.1551 21.83 23.218 21.6031C22.4948 22.6787 22.325 23.8283 22.753 25.06C22.3838 24.6532 22.1857 24.1737 22.034 23.6561C21.9843 23.927 21.9522 24.1969 21.9575 24.466C21.9629 24.7416 22.0049 25.0164 22.0356 25.3415C21.4161 24.1706 21.6028 23.0703 22.1386 21.9963C22.6698 20.9315 23.509 20.1555 24.5604 19.5942C23.4625 19.8733 22.5836 20.4589 21.9666 21.4012C21.3633 22.3227 21.0415 23.3204 21.2031 24.4376C20.7686 23.5966 20.7589 22.7046 20.8368 21.8013C20.4153 23.4729 20.8052 25.0222 21.5921 26.5117C20.2502 25.2458 19.9154 24.2133 19.6909 22.9499C19.669 22.8329 19.647 22.7158 19.6251 22.5987C19.6194 22.6004 19.6137 22.6021 19.608 22.6038C19.608 22.7339 19.608 22.8639 19.6079 23.0328C19.6196 23.2762 19.6314 23.5196 19.6432 23.7629C19.1325 22.2922 19.3277 20.8795 19.9876 19.5055C19.8971 20.1058 19.8356 20.7062 19.9032 21.3113C20.0234 20.8941 20.1127 20.4731 20.23 20.0598C20.4218 19.3841 20.6719 18.7322 21.1416 18.1924C21.1482 18.197 21.1548 18.2017 21.1551 18.2391C20.795 19.094 20.5487 20.5306 20.6478 21.0501C20.8319 20.519 21.0364 19.9293 21.2409 19.3395C21.2698 19.3483 21.2988 19.3571 21.3277 19.3659C21.2807 19.5734 21.2225 19.7791 21.1898 19.9888C21.1565 20.2019 21.1412 20.4185 21.1313 20.6342C21.1218 20.8421 21.1292 21.0507 21.1292 21.259C21.5797 19.8626 22.4522 18.9471 23.91 18.6395C23.2576 18.9335 22.6973 19.3387 22.3308 19.9767C22.403 19.9597 22.4644 19.9271 22.5199 19.8864C22.6588 19.7846 22.7911 19.6736 22.933 19.5762C23.6319 19.0962 24.4298 18.8602 25.2777 18.668C25.7959 18.5597 26.3141 18.4514 26.8323 18.3431C26.8365 18.3611 26.8408 18.3791 26.8451 18.3971C26.7099 18.4695 26.5746 18.5418 26.4242 18.6223C27.3875 18.6314 28.5274 17.6469 28.5659 16.7634C28.3796 16.87 28.2057 16.9695 27.9945 17.0797C27.8 17.1573 27.6056 17.235 27.4112 17.3127C27.4048 17.296 27.3984 17.2793 27.392 17.2626C27.4986 17.1912 27.6052 17.1198 27.7117 17.0485C27.4937 17.0364 27.2992 17.0855 27.1017 17.1055C25.7621 17.2408 24.4231 17.3838 23.0814 17.4948C22.4729 17.5452 22.1425 17.3052 22.0206 16.8117C21.9193 16.4012 22.0352 16.014 22.1701 15.6316C22.411 14.9486 22.8361 14.3729 23.2901 13.7858C23.6225 13.4116 23.9549 13.0373 24.3156 12.6508ZM17.7293 35.8644C18.446 36.5513 18.8851 37.3808 19.0517 38.3609C19.0716 38.1547 19.0883 37.9469 19.0686 37.7425C18.9921 36.9497 18.641 36.2715 18.1293 35.6759C17.2987 34.709 16.3044 33.9252 15.2563 33.2054C15.2125 33.1753 15.1476 33.1756 15.0621 33.154C15.0923 33.2047 15.0981 33.218 15.1069 33.2288C15.5866 33.8123 16.0964 34.3742 16.5388 34.9842C17.0777 35.7272 17.4375 36.5514 17.4 37.4988C17.3997 37.5052 17.3929 37.5114 17.3891 37.5176C17.3952 37.5171 17.4013 37.5167 17.4643 37.5117C17.49 37.2161 17.5165 36.9113 17.5429 36.6077C17.7892 37.2732 17.8957 37.9576 17.7207 38.6781C17.8229 38.517 17.9146 38.3544 17.9626 38.1801C18.1839 37.3751 18.002 36.6175 17.6824 35.8695C17.6884 35.8648 17.6943 35.8601 17.7293 35.8644ZM7.28398 22.706C7.27534 22.7 7.2667 22.694 7.27858 22.6647C7.96134 22.2344 8.6441 21.8042 9.32687 21.3739C9.32496 21.3611 9.32305 21.3484 9.32113 21.3356C8.82983 21.4881 8.33853 21.6406 7.82314 21.8006C8.17675 21.507 8.51529 21.2259 8.85228 20.9462C8.64147 20.8526 8.43699 20.7619 8.20934 20.6609C7.7185 21.1854 7.22326 21.7173 6.72485 22.2464C5.94605 23.0731 5.13167 23.859 4.11787 24.4053C3.65543 24.6545 3.18516 24.8894 2.714 25.133C2.79418 25.133 2.87142 25.145 2.94367 25.1312C3.78124 24.9713 4.60958 24.7633 5.35794 24.3512C6.13273 23.9246 6.87754 23.4442 7.63301 22.9834C7.91748 22.8099 8.19508 22.6252 8.47581 22.4457C8.46451 22.4183 8.45321 22.391 8.44191 22.3637C8.06385 22.4847 7.6858 22.6057 7.28398 22.706ZM8.19731 31.8858C7.31484 31.4029 6.43315 31.1672 5.88306 31.2629C6.12786 31.3433 6.38741 31.4099 6.6318 31.5122C7.495 31.8734 8.2863 32.3412 8.78699 33.1614C9.17638 33.7993 9.28872 34.4773 8.95362 35.1725L8.96015 35.1799C8.96015 35.1799 8.95099 35.1726 8.98129 35.1904C9.04126 35.1504 9.11113 35.1198 9.15963 35.069C9.53583 34.6753 9.74164 34.2012 9.78186 33.6643C9.85784 32.65 9.37906 31.8898 8.5976 31.3088C7.48675 30.4829 6.1944 30.1008 4.84213 29.8898C4.6905 29.8662 4.53661 29.8567 4.38377 29.8407C4.73854 30.0143 5.09699 30.1443 5.44998 30.2876C5.81148 30.4343 6.17234 30.5842 6.52511 30.7502C7.14989 31.0442 7.76547 31.3558 8.23917 31.8782C8.2346 31.8859 8.23002 31.8936 8.19731 31.8858ZM25.8504 32.4001C25.7871 32.4029 25.7237 32.4057 25.6543 32.4088C25.6645 32.4287 25.6666 32.44 25.6713 32.4411C25.7418 32.4582 25.8126 32.474 25.9178 32.4957C26.6884 32.7284 27.4733 32.8807 28.2768 32.9563C29.722 33.0923 31.145 33.0098 32.5363 32.5785C32.9302 32.4563 33.3147 32.3044 33.7035 32.1662C33.6944 32.134 33.6853 32.1019 33.6761 32.0697C33.4082 32.116 33.1405 32.164 32.8722 32.2082C32.5978 32.2534 32.3235 32.3001 32.0479 32.3365C31.783 32.3715 31.5164 32.3942 31.2505 32.4223C32.3923 32.1402 33.5174 31.8361 34.5848 31.351C34.5045 31.334 34.4282 31.3242 34.3551 31.3354C32.3858 31.638 30.42 31.9648 28.4466 32.2368C27.6004 32.3534 26.7384 32.3569 25.8504 32.4001ZM7.94037 18.9231C8.15292 19.03 8.36546 19.1368 8.578 19.2437C8.58891 19.223 8.59981 19.2023 8.61071 19.1816C8.3806 19.0076 8.13651 18.8487 7.92429 18.6554C7.70852 18.4588 7.52417 18.2283 7.29841 17.9825C7.98039 17.9168 8.59771 17.8739 9.1854 17.6669C8.87739 17.6503 8.56938 17.6337 8.26137 17.6172C9.19249 17.2898 10.0979 16.9411 10.9773 16.4928C10.9858 16.498 10.9943 16.5032 10.9842 16.5332C10.7104 16.7385 10.4366 16.9439 10.1711 17.143C10.4853 17.2899 12.7261 16.2152 12.8837 15.8456C12.6243 15.9142 12.3738 15.9805 12.1233 16.0467C12.1196 16.033 12.1159 16.0192 12.1122 16.0054C12.378 15.8503 12.6437 15.6951 12.9094 15.5399C12.9001 15.5183 12.8907 15.4967 12.8814 15.475C12.6078 15.5426 12.3342 15.6101 12.0078 15.6907C12.2053 15.5072 12.3597 15.3638 12.514 15.2204C12.5051 15.2074 12.4962 15.1944 12.4872 15.1814C12.3482 15.231 12.2092 15.2806 12.0702 15.3302C12.0435 15.297 12.0168 15.2638 11.99 15.2306C12.2078 15.0316 12.4255 14.8325 12.5763 14.6947C11.6816 15.2661 10.7331 15.9242 9.73423 16.4954C8.72954 17.07 7.62726 17.4332 6.4953 17.6986C6.94956 18.8698 8.51858 20.1634 9.6184 20.2364C9.50835 20.1756 9.39829 20.1149 9.28824 20.0541C9.2938 20.0452 9.29936 20.0363 9.30491 20.0274C9.59896 20.0569 9.89301 20.0864 10.1871 20.1159C10.1896 20.0903 10.1921 20.0647 10.1946 20.0391C10.0442 20.003 9.89367 19.9675 9.74346 19.9306C9.04009 19.758 8.39365 19.4776 7.8938 18.9342C7.89968 18.9262 7.90557 18.9183 7.94037 18.9231ZM1.47021 19.6034C1.47021 20.0194 1.47021 20.4355 1.47021 20.8515C1.49983 20.8518 1.52945 20.8521 1.55907 20.8525C1.55907 20.4268 1.55907 20.0011 1.56103 19.5378C1.66346 18.7392 1.75109 17.9384 1.87136 17.1425C2.12825 15.4423 2.65308 13.8211 3.38615 12.2657C4.33976 10.2423 5.63921 8.46181 7.23848 6.89419C8.59078 5.56866 10.0897 4.44432 11.7913 3.58851C13.2802 2.83962 14.8446 2.29939 16.4482 1.85876C16.5732 1.82443 16.698 1.78964 16.8229 1.75506C16.8176 1.73097 16.8124 1.70687 16.8072 1.68277C16.3604 1.76377 15.9088 1.82464 15.4677 1.92926C13.5558 2.38273 11.7668 3.14338 10.1286 4.21098C6.59479 6.5139 4.01899 9.60097 2.54859 13.5576C1.82909 15.4937 1.40872 17.4857 1.47021 19.6034ZM27.5137 14.2243C28.0874 14.6339 28.3106 15.2029 28.2672 15.8887C28.3028 15.8908 28.3255 15.8968 28.3463 15.8927C28.9391 15.7769 29.2812 16.111 29.2715 16.7298C29.2557 17.7416 28.8157 18.5145 27.9113 18.9914C27.4146 19.2533 26.879 19.4423 26.3811 19.7023C25.3738 20.2281 24.7428 21.0509 24.5643 22.1741C24.3993 23.2117 24.6507 24.2008 24.9901 25.1802C25.0292 25.1718 25.058 25.1677 25.0856 25.1594C26.9714 24.5918 28.5657 23.5694 29.844 22.0859C32.2719 19.2682 33.0998 16.0111 32.3078 12.4093C31.6049 9.21266 29.8271 6.68617 27.042 4.90481C24.2652 3.1288 21.2346 2.44778 17.9647 3.0191C14.6082 3.60555 11.8689 5.21079 9.8974 8.01215C8.48398 10.0205 7.71433 12.2361 7.77097 14.7058C7.77951 15.0779 7.81644 15.4494 7.84243 15.8555C6.9183 16.1785 5.98777 16.5038 5.04748 16.8326C5.09672 17.4359 5.25861 18.0348 5.59802 18.563C5.93053 19.0804 6.31553 19.5646 6.69628 20.0893C5.67517 21.3459 4.60186 22.611 3.3468 23.7137C5.08887 22.9351 6.13913 21.407 7.37341 20.0563C6.51863 19.2265 5.77399 18.3594 5.5606 17.1585C7.11942 16.6841 8.60445 16.0997 10.0561 15.3146C9.46144 15.2798 8.94538 15.1641 8.48162 14.8831C8.95597 14.7695 9.42704 14.6844 9.87964 14.5416C10.5057 14.3441 11.0871 14.0721 11.5351 13.5506C12.0026 13.0064 12.4838 12.4613 13.0286 11.9971C14.5904 10.6662 16.3851 10.0018 18.469 10.3311C19.062 10.4249 19.6176 10.3746 20.1077 10.0278C21.3634 9.13932 22.609 8.23656 23.8536 7.33277C24.2299 7.05956 24.5716 6.73629 24.962 6.48636C25.445 6.1771 26.2861 6.11789 26.5957 6.82097C26.9823 7.69883 27.2572 8.61081 27.3695 9.56506C27.4679 10.4016 27.2296 11.168 26.8033 11.8736C26.3549 12.6158 25.8503 13.3248 25.4084 14.0706C25.1943 14.4319 25.0121 14.8309 24.9135 15.2363C24.7457 15.926 25.2652 16.4272 25.9637 16.3098C26.2079 16.2688 26.3473 16.1401 26.3727 15.8524C26.3922 15.632 26.3511 15.4063 26.3366 15.1783C26.7292 15.1526 27.0314 15.3645 27.3131 15.6368C27.3332 15.6049 27.3519 15.5819 27.3635 15.5557C27.5519 15.1279 27.5353 14.6849 27.4728 14.2264C27.4728 14.2264 27.4849 14.2143 27.5137 14.2243ZM10.541 26.742C7.89438 25.9222 5.26547 25.8505 2.66367 26.9173C2.77561 26.9345 2.88721 26.9327 2.99814 26.9233C3.71021 26.8626 4.4218 26.796 5.13419 26.7393C6.62927 26.6203 8.11579 26.6885 9.57065 27.0597C12.4707 27.7995 15.0129 29.1861 17.1552 31.2761C18.6175 32.7027 19.7941 34.3157 20.476 36.254C20.511 36.3533 20.533 36.4571 20.561 36.5588C20.4968 36.5361 20.4757 36.4996 20.458 36.4616C19.8608 35.1732 18.9885 34.0861 17.9538 33.1228C16.3417 31.6219 14.4656 30.5325 12.4355 29.6942C10.0709 28.7179 7.61624 28.1961 5.04383 28.3236C4.5175 28.3497 3.99384 28.4286 3.46895 28.4831C3.9907 28.5928 4.50779 28.6424 5.01855 28.7288C6.28376 28.9427 7.55594 29.1299 8.80723 29.408C10.6038 29.8072 12.3099 30.4706 13.9408 31.3231C15.9188 32.3571 17.7382 33.6015 19.2442 35.2577C20.1386 36.2413 20.8704 37.3257 21.2141 38.6591C21.2361 38.5987 21.2519 38.5656 21.2602 38.5307C21.4337 37.8068 21.4159 37.0782 21.2858 36.3529C20.9711 34.5979 20.1245 33.1065 18.8845 31.8467C16.544 29.4689 13.7556 27.7914 10.541 26.742ZM26.4579 26.4744C27.9636 26.8263 29.4925 26.9935 31.0368 27.0193C32.7866 27.0486 34.5129 26.8397 36.2195 26.4657C36.5538 26.3925 36.8817 26.2909 37.2126 26.2023C37.2091 26.1907 37.2055 26.1791 37.2019 26.1676C33.3023 26.1676 29.4027 26.1676 25.503 26.1676C25.5017 26.1801 25.5003 26.1926 25.4989 26.2051C25.8068 26.2909 26.1147 26.3766 26.4579 26.4744ZM11.8234 31.2099C10.9115 30.7965 9.98945 30.4129 9.0161 30.2343C9.80432 30.596 10.6161 30.9395 11.4006 31.3362C12.3078 31.7949 13.0955 32.4168 13.6993 33.2411C14.3567 34.1385 14.5613 35.1268 14.2698 36.2098C14.1419 36.685 13.8829 37.0863 13.5752 37.4821C14.2606 37.3208 14.9706 36.1974 14.8791 35.2411C15.1637 35.7709 15.1581 37.0375 14.6567 37.8461C14.7778 37.7705 14.8958 37.6866 14.9844 37.579C15.33 37.1591 15.4865 36.6624 15.5128 36.1308C15.5744 34.8916 15.1155 33.8369 14.2926 32.9309C13.6118 32.1814 12.7494 31.6774 11.8234 31.2099ZM28.1206 28.1407C31.0136 28.596 33.8598 28.4064 36.6574 27.5385C33.0276 27.6619 29.3979 27.6333 25.768 27.5541C25.7649 27.5797 25.7619 27.6052 25.7588 27.6308C26.5329 27.7993 27.3071 27.9677 28.1206 28.1407ZM29.1082 34.0193C27.7461 34.3266 26.3816 34.6192 24.9788 34.6826C27.3187 35.2844 29.6216 35.4101 31.8189 34.1551C31.1731 34.2708 30.5273 34.3865 29.8815 34.5022C29.8757 34.4791 29.8699 34.456 29.8642 34.4329C30.881 34.1707 31.8733 33.8468 32.7957 33.3475C32.7893 33.3253 32.7829 33.3031 32.7765 33.281C31.5663 33.5251 30.3561 33.7692 29.1082 34.0193ZM34.8582 30.0722C33.8747 30.1325 32.892 30.2156 31.9077 30.2467C30.9151 30.278 29.9208 30.2701 28.9275 30.2564C27.9513 30.2429 26.9754 30.2006 25.9459 30.1693C27.6758 30.789 28.9394 30.9986 30.7085 31.0439C32.0902 31.0793 35.0091 30.4673 35.3575 30.0705C35.2014 30.0705 35.0513 30.0705 34.8582 30.0722ZM30.4681 28.9539C29.0361 28.9259 27.6041 28.8978 26.1439 28.8692C29.3311 29.9213 32.9136 29.8636 35.7849 28.8568C34.0676 28.8885 32.2905 28.9213 30.4681 28.9539ZM12.6764 23.5349C12.6764 23.0268 12.6764 22.5186 12.6764 21.9715C12.631 22.0218 12.6127 22.0345 12.6049 22.0519C12.1661 23.0211 11.8579 24.0195 11.9556 25.0995C12.0181 25.7905 12.2481 26.4153 12.7808 26.9575C12.6653 26.5706 12.5328 26.2321 12.4685 25.8813C12.4021 25.5192 12.4022 25.1451 12.3731 24.7763C12.3943 24.7708 12.4155 24.7654 12.4366 24.76C12.6563 25.7796 13.2467 26.5814 13.9519 27.34C13.9431 27.2806 13.9448 27.2353 13.9294 27.1968C13.7299 26.6992 13.5406 26.197 13.3235 25.707C13.0199 25.0218 12.7441 24.3312 12.6764 23.5349ZM23.6958 36.9368C23.6913 36.9453 23.6856 36.9536 23.6833 36.9627C23.6828 36.9645 23.6946 36.9712 23.7014 36.9729C24.5424 37.1907 25.3938 37.3184 26.2657 37.2524C26.7089 37.2189 27.1368 37.1202 27.5636 36.9233C27.4998 36.8946 27.4566 36.8752 27.3554 36.8298C28.2888 36.5561 29.1284 36.2151 29.9077 35.7339C29.6024 35.7685 29.3026 35.8193 29.0053 35.8818C27.2495 36.2509 25.5245 36.7729 23.6958 36.9368ZM10.305 24.037C10.3382 23.6902 10.3714 23.3434 10.4078 22.9633C9.8802 23.8011 9.71501 25.0426 10.2549 25.8201C10.2911 25.6494 10.3263 25.4603 10.372 25.2737C10.4179 25.0867 10.4744 24.9023 10.5338 24.6896C10.6416 25.2342 10.8436 25.7029 11.1817 26.1159C10.9769 25.3809 10.9668 24.6423 11.0843 23.8976C11.2012 23.1563 11.4814 22.4755 11.8611 21.8287C11.0729 22.5403 10.5889 23.4245 10.329 24.441C10.3125 24.3847 10.3085 24.3334 10.3065 24.2819C10.3039 24.2148 10.3029 24.1477 10.305 24.037ZM10.2407 31.8759C10.6119 32.1788 10.9126 32.5389 11.1062 32.9764C11.454 33.7623 11.1806 34.4698 10.4006 34.8329C10.3853 34.84 10.3772 34.8626 10.3657 34.878C10.3808 34.8945 10.396 34.911 10.4111 34.9276C11.0737 34.8081 11.5661 34.4925 11.687 33.7425C11.9906 34.506 11.6661 35.0259 11.0275 35.4294C11.6179 35.385 12.0127 35.0845 12.159 34.5743C12.2703 34.1858 12.2083 33.8048 12.0396 33.4417C11.6912 32.6922 11.0516 32.2398 10.3625 31.8416C10.3276 31.8215 10.2611 31.8553 10.2407 31.8759ZM13.6541 24.0978C13.5955 23.823 13.5369 23.5483 13.4679 23.2246C13.1817 24.8065 13.6665 25.978 14.5883 26.7931C14.2881 25.927 13.9771 25.03 13.6541 24.0978ZM35.2435 13.1745C35.1251 12.8101 35.0145 12.4421 34.7803 12.1288C35.1571 13.4306 35.4361 14.7447 35.4867 16.131C35.6156 15.0831 35.5375 14.1301 35.2435 13.1745ZM4.49596 14.8035C4.49596 15.1318 4.49596 15.46 4.49596 15.724C4.71644 14.5983 4.94804 13.4158 5.18601 12.2008C4.77259 13.0274 4.55641 13.873 4.49596 14.8035ZM7.22209 9.22602C7.23214 9.1949 7.24219 9.16377 7.25223 9.13265C7.20635 9.15424 7.14126 9.16329 7.11741 9.19926C6.55373 10.0494 6.13148 10.9571 5.98763 11.9758C5.97665 12.0535 5.96647 12.1314 5.95592 12.2092C5.97597 12.2139 5.99601 12.2186 6.01606 12.2233C6.28627 11.1817 6.71338 10.2043 7.22209 9.22602ZM33.4389 10.4846C33.6476 11.0227 33.8563 11.5609 34.0546 12.0721C34.1443 11.3724 33.18 9.15117 32.7301 9.04195C32.9609 9.50799 33.1947 9.98002 33.4389 10.4846ZM7.48347 25.3009C7.76495 25.0874 8.01666 24.8493 8.18595 24.5138C7.45545 24.9701 6.75137 25.4099 6.0382 25.8553C6.55944 25.7958 7.03848 25.64 7.48347 25.3009ZM5.99414 24.7716C6.73637 24.5676 7.33322 24.1577 7.83371 23.5151C7.03023 23.9771 6.27596 24.4108 5.51778 24.8468C5.65331 24.8255 5.80539 24.8015 5.99414 24.7716ZM25.5659 7.32372C25.6681 7.15515 25.7703 6.98658 25.872 6.81882C25.5889 6.68393 25.118 6.97188 24.9462 7.41111C25.1301 7.50812 25.3157 7.60601 25.4994 7.70288C25.5219 7.57803 25.5417 7.46849 25.5659 7.32372ZM3.78644 19.0814C3.80305 19.1344 3.81967 19.1874 3.83628 19.2405C3.84329 19.2388 3.8503 19.2372 3.85731 19.2355C3.81171 18.368 3.7661 17.5004 3.7205 16.6328C3.70192 16.6315 3.68333 16.6301 3.66475 16.6287C3.63962 16.8674 3.57953 17.1086 3.5963 17.3443C3.63676 17.9129 3.71315 18.479 3.78644 19.0814ZM33.6982 20.234C34.0149 19.5496 34.2067 18.3816 34.0564 18.0377C33.8946 18.8224 33.7337 19.6035 33.5727 20.3846C33.5898 20.3895 33.6068 20.3943 33.6239 20.3992C33.6395 20.3522 33.6551 20.3052 33.6982 20.234ZM36.3256 18.3864C36.4241 17.7945 36.4196 17.2056 36.3121 16.6199C36.2931 16.62 36.2742 16.6201 36.2552 16.6202C36.2125 17.4247 36.1697 18.2293 36.1269 19.0338C36.1436 19.0371 36.1603 19.0405 36.177 19.0438C36.2254 18.8375 36.2738 18.6312 36.3256 18.3864ZM16.4245 38.0266C16.3846 38.0931 16.3446 38.1597 16.3028 38.2293C16.8216 38.113 17.1419 36.7057 16.731 36.1804C16.8033 36.8058 16.6929 37.4851 16.4245 38.0266ZM26.8137 16.337C26.826 16.3704 26.8431 16.4337 26.8498 16.4326C26.9498 16.4165 27.0485 16.392 27.2042 16.3565C27.0868 16.1271 26.9882 15.9347 26.8897 15.7422C26.8782 15.7512 26.8667 15.7601 26.8552 15.769C26.8449 15.9454 26.8347 16.1218 26.8137 16.337ZM37.3184 26.1556C37.3126 26.1528 37.3067 26.1501 37.3008 26.1473C37.3049 26.1451 37.3096 26.1404 37.3129 26.1412C37.3189 26.1425 37.324 26.1473 37.3184 26.1556ZM13.8688 34.1049C13.8724 34.1097 13.8761 34.1146 13.8797 34.1194C13.876 34.1183 13.8724 34.1172 13.8688 34.1049ZM27.749 17.0188C27.7601 17.0093 27.7711 16.9999 27.7822 16.9905C27.7661 16.9937 27.7499 16.9969 27.749 17.0188ZM29.9838 35.6958C29.9753 35.7002 29.9667 35.7046 29.9582 35.7091C29.9691 35.7091 29.9801 35.7091 29.9838 35.6958Z" fill="url(#paint0_linear_165_226)"/>
<path d="M27.4664 14.2324C27.451 14.231 27.4421 14.2239 27.4332 14.2168C27.4449 14.2126 27.4565 14.2085 27.4766 14.2093C27.4849 14.2144 27.4728 14.2266 27.4664 14.2324Z" fill="url(#paint1_linear_165_226)"/>
<path d="M21.5013 11.4177C20.8506 12.0598 20.151 12.6194 19.2403 12.8716C18.4541 13.0893 17.8623 13.5743 17.456 14.2841C17.439 14.2761 17.422 14.2681 17.405 14.2601C17.4887 13.8835 17.5724 13.5069 17.6661 13.0852C17.5596 13.1823 17.487 13.2484 17.4145 13.3144C17.39 13.2949 17.3655 13.2753 17.341 13.2557C17.5042 13.0011 17.6673 12.7465 17.8325 12.4887C17.7211 12.5009 17.5817 12.5163 17.4423 12.5316C17.4351 12.5104 17.4278 12.4893 17.4205 12.4682C17.7122 12.3531 18.0038 12.2379 18.2946 12.1232C18.241 12.1003 18.1563 12.0642 18.0715 12.028C19.2665 12.1594 20.3946 11.9862 21.4641 11.3938C21.4906 11.4047 21.4959 11.4112 21.5013 11.4177Z" fill="#3DDEED"/>
<path d="M16.6449 16.6414C16.2413 17.5627 15.818 18.4761 15.4412 19.4081C15.1915 20.0257 15.0084 20.6699 14.8105 21.2578C14.4573 18.9375 15.529 16.5686 16.7045 15.8372C16.4286 16.2647 16.1359 16.7182 15.8432 17.1718C15.8564 17.1865 15.8696 17.2012 15.8828 17.2158C16.1129 17.015 16.3431 16.8142 16.5983 16.619C16.6306 16.6302 16.6377 16.6358 16.6449 16.6414Z" fill="url(#paint2_linear_165_226)"/>
<path d="M19.4691 19.4115C19.0318 20.8975 18.722 22.3835 18.8266 23.927C18.8383 24.0998 18.8613 24.2719 18.8533 24.4437C18.1548 22.4976 18.4789 20.6808 19.5538 18.9612C19.5729 18.9656 19.5921 18.9701 19.6112 18.9745C19.5656 19.1144 19.5199 19.2543 19.4691 19.4115Z" fill="url(#paint3_linear_165_226)"/>
<path d="M19.804 11.3556C20.4822 11.1276 21.0634 10.7589 21.6324 10.3694C22.1448 10.0187 22.6534 9.66239 23.1643 9.30948C23.1982 9.28603 23.2377 9.27038 23.2771 9.24976C23.2854 9.27609 23.2956 9.29611 23.292 9.29897C22.5128 9.9163 21.749 10.5545 20.9459 11.1395C20.5267 11.4449 20.0011 11.49 19.4766 11.4509C19.5223 11.4367 19.5678 11.4218 19.6138 11.4084C19.6713 11.3918 19.7291 11.3765 19.804 11.3556Z" fill="#3DDEED"/>
<path d="M23.0044 13.4356C23.2484 13.2078 23.4906 12.978 23.7386 12.7545C23.7751 12.7216 23.8389 12.7184 23.8881 12.7146C23.6465 12.9954 23.4069 13.263 23.1631 13.5453C22.7296 14.14 22.3004 14.7199 21.8417 15.3396C21.8715 15.2581 21.8877 15.2137 21.9178 15.1419C21.9862 14.9877 22.0407 14.861 22.1065 14.7242C22.4133 14.2879 22.7088 13.8618 23.0044 13.4356Z" fill="url(#paint4_linear_165_226)"/>
<path d="M15.1626 14.5162C15.1688 14.4767 15.1898 14.451 15.2108 14.4253C15.223 14.4378 15.2353 14.4502 15.2475 14.4627C15.2241 14.4852 15.2007 14.5076 15.1626 14.5162Z" fill="url(#paint5_linear_165_226)"/>
<path d="M16.6132 16.6162C16.6306 16.5946 16.6582 16.5822 16.6858 16.5698C16.6795 16.5877 16.6732 16.6056 16.6559 16.6329C16.6377 16.6366 16.6306 16.631 16.6132 16.6162Z" fill="url(#paint6_linear_165_226)"/>
<path d="M19.3439 24.0425C19.3438 24.0218 19.3512 24.0108 19.3587 23.9998C19.3563 24.0173 19.3539 24.0348 19.3439 24.0425Z" fill="url(#paint7_linear_165_226)"/>
<path d="M16.653 15.0853C16.6713 15.0673 16.7012 15.0601 16.731 15.053C16.7246 15.0694 16.7183 15.0857 16.7 15.1095C16.6802 15.1099 16.6723 15.103 16.653 15.0853Z" fill="url(#paint8_linear_165_226)"/>
<path d="M21.479 11.387C21.4898 11.3868 21.5068 11.3977 21.5126 11.4132C21.4959 11.4112 21.4905 11.4047 21.479 11.387Z" fill="url(#paint9_linear_165_226)"/>
<path d="M15.4202 13.677C15.4315 13.6767 15.4497 13.687 15.4559 13.702C15.4382 13.7004 15.4326 13.694 15.4202 13.677Z" fill="url(#paint10_linear_165_226)"/>
<path d="M21.1325 18.1844C21.1366 18.1673 21.1497 18.1583 21.1627 18.1494C21.1662 18.1611 21.1696 18.1728 21.1672 18.1956C21.1548 18.2019 21.1482 18.1973 21.1325 18.1844Z" fill="url(#paint11_linear_165_226)"/>
<path d="M22.7922 25.1262C22.7783 25.1261 22.775 25.1152 22.7716 25.1042C22.782 25.108 22.7923 25.1117 22.7922 25.1262Z" fill="url(#paint12_linear_165_226)"/>
<path d="M7.88418 18.9455C7.83317 18.9324 7.7918 18.9081 7.75043 18.8837C7.75411 18.874 7.75779 18.8644 7.76148 18.8547C7.80515 18.8658 7.84881 18.8768 7.90197 18.8991C7.90558 18.9183 7.89969 18.9263 7.88418 18.9455Z" fill="url(#paint13_linear_165_226)"/>
<path d="M10.9656 16.484C10.9808 16.465 11.0077 16.4553 11.0346 16.4456C11.0324 16.4634 11.0301 16.4812 11.0153 16.504C10.9943 16.5038 10.9858 16.4985 10.9656 16.484Z" fill="url(#paint14_linear_165_226)"/>
<path d="M8.24774 31.8677C8.26521 31.8706 8.27408 31.8839 8.28295 31.8973C8.27144 31.9017 8.25993 31.906 8.23691 31.9059C8.22999 31.8937 8.23457 31.8859 8.24774 31.8677Z" fill="url(#paint15_linear_165_226)"/>
<path d="M7.21333 22.7682C7.17222 22.7815 7.1311 22.7948 7.08999 22.8081C7.08705 22.7992 7.08411 22.7902 7.08118 22.7813C7.10698 22.7696 7.13279 22.7579 7.17817 22.7478C7.20293 22.7556 7.20813 22.7619 7.21333 22.7682Z" fill="url(#paint16_linear_165_226)"/>
<path d="M7.29585 22.7165C7.28543 22.7402 7.26313 22.7535 7.22709 22.7678C7.20816 22.7624 7.20296 22.756 7.1908 22.7395C7.20193 22.7181 7.22002 22.7068 7.24809 22.6917C7.2667 22.6939 7.27534 22.6999 7.29585 22.7165Z" fill="url(#paint17_linear_165_226)"/>
<path d="M11.1551 18.5182C11.1281 18.5273 11.0945 18.5275 11.0609 18.5277C11.0756 18.5165 11.0903 18.5054 11.1195 18.4932C11.1341 18.4921 11.1484 18.5092 11.1551 18.5182Z" fill="url(#paint18_linear_165_226)"/>
<path d="M17.6729 35.8761C17.6546 35.8637 17.6458 35.8449 17.6369 35.8262C17.6546 35.826 17.6723 35.8259 17.6951 35.8406C17.6943 35.8603 17.6884 35.865 17.6729 35.8761Z" fill="url(#paint19_linear_165_226)"/>
<defs>
<linearGradient id="paint0_linear_165_226" x1="20" y1="0" x2="20" y2="40" gradientUnits="userSpaceOnUse">
<stop stop-color="#3DDEED" stop-opacity="0.8"/>
<stop offset="1" stop-color="white" stop-opacity="0.8"/>
</linearGradient>
<linearGradient id="paint1_linear_165_226" x1="27.4563" y1="14.2092" x2="27.4563" y2="14.2324" gradientUnits="userSpaceOnUse">
<stop stop-color="#3DDEED" stop-opacity="0.8"/>
<stop offset="1" stop-color="white" stop-opacity="0.8"/>
</linearGradient>
<linearGradient id="paint2_linear_165_226" x1="15.7233" y1="15.8372" x2="15.7233" y2="21.2578" gradientUnits="userSpaceOnUse">
<stop stop-color="#3DDEED" stop-opacity="0.8"/>
<stop offset="1" stop-color="white" stop-opacity="0.8"/>
</linearGradient>
<linearGradient id="paint3_linear_165_226" x1="19.0475" y1="18.9612" x2="19.0475" y2="24.4437" gradientUnits="userSpaceOnUse">
<stop stop-color="#3DDEED" stop-opacity="0.8"/>
<stop offset="1" stop-color="white" stop-opacity="0.8"/>
</linearGradient>
<linearGradient id="paint4_linear_165_226" x1="22.8649" y1="12.7146" x2="22.8649" y2="15.3396" gradientUnits="userSpaceOnUse">
<stop stop-color="#3DDEED" stop-opacity="0.8"/>
<stop offset="1" stop-color="white" stop-opacity="0.8"/>
</linearGradient>
<linearGradient id="paint5_linear_165_226" x1="15.205" y1="14.4253" x2="15.205" y2="14.5162" gradientUnits="userSpaceOnUse">
<stop stop-color="#3DDEED" stop-opacity="0.8"/>
<stop offset="1" stop-color="white" stop-opacity="0.8"/>
</linearGradient>
<linearGradient id="paint6_linear_165_226" x1="16.6495" y1="16.5698" x2="16.6495" y2="16.634" gradientUnits="userSpaceOnUse">
<stop stop-color="#3DDEED" stop-opacity="0.8"/>
<stop offset="1" stop-color="white" stop-opacity="0.8"/>
</linearGradient>
<linearGradient id="paint7_linear_165_226" x1="19.3513" y1="23.9998" x2="19.3513" y2="24.0425" gradientUnits="userSpaceOnUse">
<stop stop-color="#3DDEED" stop-opacity="0.8"/>
<stop offset="1" stop-color="white" stop-opacity="0.8"/>
</linearGradient>
<linearGradient id="paint8_linear_165_226" x1="16.692" y1="15.053" x2="16.692" y2="15.1095" gradientUnits="userSpaceOnUse">
<stop stop-color="#3DDEED" stop-opacity="0.8"/>
<stop offset="1" stop-color="white" stop-opacity="0.8"/>
</linearGradient>
<linearGradient id="paint9_linear_165_226" x1="21.4958" y1="11.387" x2="21.4958" y2="11.4132" gradientUnits="userSpaceOnUse">
<stop stop-color="#3DDEED" stop-opacity="0.8"/>
<stop offset="1" stop-color="white" stop-opacity="0.8"/>
</linearGradient>
<linearGradient id="paint10_linear_165_226" x1="15.438" y1="13.677" x2="15.438" y2="13.702" gradientUnits="userSpaceOnUse">
<stop stop-color="#3DDEED" stop-opacity="0.8"/>
<stop offset="1" stop-color="white" stop-opacity="0.8"/>
</linearGradient>
<linearGradient id="paint11_linear_165_226" x1="21.1503" y1="18.1494" x2="21.1503" y2="18.1984" gradientUnits="userSpaceOnUse">
<stop stop-color="#3DDEED" stop-opacity="0.8"/>
<stop offset="1" stop-color="white" stop-opacity="0.8"/>
</linearGradient>
<linearGradient id="paint12_linear_165_226" x1="22.7819" y1="25.1042" x2="22.7819" y2="25.1262" gradientUnits="userSpaceOnUse">
<stop stop-color="#3DDEED" stop-opacity="0.8"/>
<stop offset="1" stop-color="white" stop-opacity="0.8"/>
</linearGradient>
<linearGradient id="paint13_linear_165_226" x1="7.82671" y1="18.8547" x2="7.82671" y2="18.9455" gradientUnits="userSpaceOnUse">
<stop stop-color="#3DDEED" stop-opacity="0.8"/>
<stop offset="1" stop-color="white" stop-opacity="0.8"/>
</linearGradient>
<linearGradient id="paint14_linear_165_226" x1="11.0001" y1="16.4456" x2="11.0001" y2="16.504" gradientUnits="userSpaceOnUse">
<stop stop-color="#3DDEED" stop-opacity="0.8"/>
<stop offset="1" stop-color="white" stop-opacity="0.8"/>
</linearGradient>
<linearGradient id="paint15_linear_165_226" x1="8.25833" y1="31.8677" x2="8.25833" y2="31.9059" gradientUnits="userSpaceOnUse">
<stop stop-color="#3DDEED" stop-opacity="0.8"/>
<stop offset="1" stop-color="white" stop-opacity="0.8"/>
</linearGradient>
<linearGradient id="paint16_linear_165_226" x1="7.14726" y1="22.7478" x2="7.14726" y2="22.8081" gradientUnits="userSpaceOnUse">
<stop stop-color="#3DDEED" stop-opacity="0.8"/>
<stop offset="1" stop-color="white" stop-opacity="0.8"/>
</linearGradient>
<linearGradient id="paint17_linear_165_226" x1="7.24332" y1="22.6917" x2="7.24332" y2="22.7678" gradientUnits="userSpaceOnUse">
<stop stop-color="#3DDEED" stop-opacity="0.8"/>
<stop offset="1" stop-color="white" stop-opacity="0.8"/>
</linearGradient>
<linearGradient id="paint18_linear_165_226" x1="11.108" y1="18.4932" x2="11.108" y2="18.5277" gradientUnits="userSpaceOnUse">
<stop stop-color="#3DDEED" stop-opacity="0.8"/>
<stop offset="1" stop-color="white" stop-opacity="0.8"/>
</linearGradient>
<linearGradient id="paint19_linear_165_226" x1="17.666" y1="35.8262" x2="17.666" y2="35.8761" gradientUnits="userSpaceOnUse">
<stop stop-color="#3DDEED" stop-opacity="0.8"/>
<stop offset="1" stop-color="white" stop-opacity="0.8"/>
</linearGradient>
</defs>
</svg>
