<svg width="165" height="36" viewBox="0 0 165 36" fill="none" xmlns="http://www.w3.org/2000/svg">
<path d="M52.65 13.316V14.614H48.162V27H44.62V14.614H40.176V13.316H52.65ZM57.6882 20.884H62.4402V18.31C62.4402 18.0313 62.3962 17.848 62.3082 17.76C62.2348 17.672 62.0515 17.628 61.7582 17.628H58.3702C58.0768 17.628 57.8862 17.672 57.7982 17.76C57.7248 17.848 57.6882 18.0313 57.6882 18.31V20.884ZM56.0382 16.33H64.0022C65.1608 16.33 65.7402 16.9093 65.7402 18.068V22.182H57.6882V25.02C57.6882 25.3133 57.7248 25.504 57.7982 25.592C57.8862 25.6653 58.0768 25.702 58.3702 25.702H61.7142C62.0075 25.702 62.1908 25.6653 62.2642 25.592C62.3522 25.504 62.3962 25.3133 62.3962 25.02V23.722H65.6962V25.262C65.6962 26.4207 65.1168 27 63.9582 27H56.0382C54.8795 27 54.3002 26.4207 54.3002 25.262V18.068C54.3002 16.9093 54.8795 16.33 56.0382 16.33ZM79.5008 20.048H76.1788V18.31C76.1788 18.0313 76.1348 17.848 76.0468 17.76C75.9735 17.672 75.7902 17.628 75.4968 17.628H72.5928C72.2995 17.628 72.1088 17.672 72.0208 17.76C71.9475 17.848 71.9108 18.0313 71.9108 18.31V25.02C71.9108 25.3133 71.9475 25.504 72.0208 25.592C72.1088 25.6653 72.2995 25.702 72.5928 25.702H75.4968C75.7902 25.702 75.9735 25.6653 76.0468 25.592C76.1348 25.504 76.1788 25.3133 76.1788 25.02V23.326H79.5008V25.262C79.5008 26.4207 78.9215 27 77.7628 27H70.2608C69.1022 27 68.5228 26.4207 68.5228 25.262V18.068C68.5228 16.9093 69.1022 16.33 70.2608 16.33H77.7628C78.9215 16.33 79.5008 16.9093 79.5008 18.068V20.048ZM86.876 16.33H91.716C92.8747 16.33 93.454 16.9093 93.454 18.068V27H90.066V18.31C90.066 18.0313 90.022 17.848 89.934 17.76C89.8607 17.672 89.6773 17.628 89.384 17.628H86.414C85.9007 17.628 85.644 17.8627 85.644 18.332V18.97H85.622V27H82.212V12.282H85.622V17.056C85.798 16.572 86.216 16.33 86.876 16.33Z" fill="#3DDEED"/>
<path d="M114.657 18.134H111.093V15.296C111.093 15.0027 111.049 14.8193 110.961 14.746C110.873 14.658 110.689 14.614 110.411 14.614H106.847C106.568 14.614 106.385 14.658 106.297 14.746C106.209 14.8193 106.165 15.0027 106.165 15.296V25.02C106.165 25.3133 106.209 25.504 106.297 25.592C106.385 25.6653 106.568 25.702 106.847 25.702H110.411C110.689 25.702 110.873 25.6653 110.961 25.592C111.049 25.504 111.093 25.3133 111.093 25.02V22.204H114.657V25.262C114.657 26.4207 114.077 27 112.919 27H104.339C103.18 27 102.601 26.4207 102.601 25.262V15.054C102.601 13.8953 103.18 13.316 104.339 13.316H112.919C114.077 13.316 114.657 13.8953 114.657 15.054V18.134ZM120.988 27H117.578V16.33H120.988V27ZM117.512 14.548V12.26H121.054V14.548H117.512ZM131.338 25.042V23.018C131.338 22.7393 131.294 22.556 131.206 22.468C131.133 22.38 130.95 22.336 130.656 22.336H125.794C124.636 22.336 124.056 21.7567 124.056 20.598V18.068C124.056 16.9093 124.636 16.33 125.794 16.33H132.856C134.015 16.33 134.594 16.9093 134.594 18.068V19.52H131.294V18.288C131.294 17.9947 131.25 17.8113 131.162 17.738C131.089 17.65 130.906 17.606 130.612 17.606H128.126C127.848 17.606 127.664 17.65 127.576 17.738C127.488 17.8113 127.444 17.9947 127.444 18.288V20.356C127.444 20.6493 127.488 20.84 127.576 20.928C127.664 21.0013 127.848 21.038 128.126 21.038H132.988C134.147 21.038 134.726 21.6173 134.726 22.776V25.262C134.726 26.4207 134.147 27 132.988 27H125.86C124.702 27 124.122 26.4207 124.122 25.262V23.81H127.444V25.042C127.444 25.3207 127.488 25.504 127.576 25.592C127.664 25.68 127.848 25.724 128.126 25.724H130.656C130.95 25.724 131.133 25.68 131.206 25.592C131.294 25.504 131.338 25.3207 131.338 25.042ZM142.241 16.33H147.081C148.24 16.33 148.819 16.9093 148.819 18.068V27H145.409V18.31C145.409 18.0313 145.365 17.848 145.277 17.76C145.189 17.672 145.006 17.628 144.727 17.628H141.779C141.266 17.628 141.009 17.8627 141.009 18.332V18.992H140.987V27H137.577V16.33H140.987V17.056C141.163 16.572 141.581 16.33 142.241 16.33ZM155.141 20.884H159.893V18.31C159.893 18.0313 159.849 17.848 159.761 17.76C159.688 17.672 159.505 17.628 159.211 17.628H155.823C155.53 17.628 155.339 17.672 155.251 17.76C155.178 17.848 155.141 18.0313 155.141 18.31V20.884ZM153.491 16.33H161.455C162.614 16.33 163.193 16.9093 163.193 18.068V22.182H155.141V25.02C155.141 25.3133 155.178 25.504 155.251 25.592C155.339 25.6653 155.53 25.702 155.823 25.702H159.167C159.461 25.702 159.644 25.6653 159.717 25.592C159.805 25.504 159.849 25.3133 159.849 25.02V23.722H163.149V25.262C163.149 26.4207 162.57 27 161.411 27H153.491C152.333 27 151.753 26.4207 151.753 25.262V18.068C151.753 16.9093 152.333 16.33 153.491 16.33Z" fill="white"/>
<path d="M11.949 0.516074C10.8093 1.43248 10.1223 2.68389 9.59541 4.06208C9.12885 5.28249 8.82482 6.55106 8.68341 7.86249C8.47668 9.77964 8.78965 11.6092 9.46606 13.3843C10.0138 14.8218 10.8639 16.0362 11.7511 17.2268C12.5622 18.3153 13.4187 19.3612 14.3076 20.3751C14.5527 20.6547 14.5527 20.6534 14.3468 20.9571C13.7716 21.8053 13.2841 22.7023 13.0512 23.7408C13.0385 23.7975 13.0079 23.8494 12.9715 23.9381C9.88608 21.4645 7.01594 18.8036 5.28302 14.9653C5.36159 15.4632 5.56949 15.8888 5.7649 16.3199C6.63658 18.2429 7.71358 20.0086 9.10328 21.5373C9.89747 22.4109 10.837 23.0764 11.757 23.7703C12.0507 23.9918 12.3505 24.2035 12.6448 24.4238C12.7873 24.5305 12.8507 24.6467 12.8322 24.8727C12.7265 26.1645 12.9849 27.3799 13.5324 28.5296C13.9161 29.3352 14.4123 30.0507 14.9489 30.7374C14.974 30.7696 14.9817 30.818 15.0317 30.8257C14.8062 30.4169 14.5621 30.0296 14.3339 29.6307C13.7406 28.5937 13.2674 27.5021 13.131 26.2748C12.9895 25.0009 13.1838 23.7811 13.6759 22.6121C14.3416 21.0306 15.3724 19.788 16.6081 18.7158C17.441 17.9931 18.3371 17.365 19.1594 16.6283C19.917 15.9497 20.5308 15.1551 20.7913 14.1018C20.9963 13.2727 20.9456 12.4877 20.3309 11.8456C19.6645 11.1496 18.5243 11.2174 17.9719 12.0222C17.6269 12.525 17.2268 12.9319 16.7168 13.2268C16.0912 13.5888 15.7673 14.2538 15.4067 14.8743C15.1686 15.284 14.9432 15.7026 14.6652 16.0825C14.5459 16.2455 14.416 16.4009 14.2365 16.4863C14.101 16.5508 13.9651 16.6353 13.8143 16.5063C13.6691 16.3822 13.649 16.2119 13.6665 16.0393C13.7032 15.6761 13.822 15.3346 13.9274 14.99C14.1036 14.4135 14.2294 13.828 14.2208 13.2131C14.2179 13.0034 14.1727 12.8186 14.0627 12.6537C13.3562 11.5937 13.3783 10.4463 13.7876 9.29485C14.302 7.84782 15.3529 7.0227 16.6839 6.64749C18.7152 6.07485 20.5765 6.55311 22.2616 7.89256C23.7273 9.05766 24.5686 10.6567 24.8996 12.5742C25.211 14.3776 24.8622 16.0789 24.1145 17.7008C23.7599 18.47 23.3021 19.1666 22.8666 19.8794C22.8249 19.9477 22.7559 20.0009 22.7484 20.1647C22.9531 19.9009 23.1326 19.6879 23.2934 19.4591C24.1362 18.2599 24.7766 16.919 25.5206 15.6506C26.3364 14.2599 26.9293 12.7649 27.2361 11.1452C27.4182 10.1841 27.4407 9.21235 27.3729 8.23066C27.226 6.10495 26.5884 4.16067 25.5867 2.35242C25.066 1.41261 24.3826 0.63448 23.4715 0.125665C23.4297 0.102334 23.3808 0.0867741 23.3794 0C25.1364 0.314112 26.5538 1.26917 27.735 2.68292C28.9103 4.08956 29.5467 5.78786 29.9823 7.60483C30.3146 5.10854 30.2016 2.71031 28.6919 0.600068C28.8271 0.569246 28.8851 0.652779 28.9546 0.700042C30.4854 1.74181 31.4607 3.24792 32.0027 5.10116C32.3411 6.25828 32.5233 7.44556 32.5432 8.66681C32.5633 9.90231 32.4725 11.1199 32.2157 12.3232C32.1968 12.4117 32.1668 12.5066 32.2125 12.6029C32.3039 12.5885 32.3151 12.4989 32.343 12.4348C32.9733 10.9839 33.5164 9.49685 33.7548 7.90416C33.9419 6.65394 33.9228 5.40681 33.5238 4.19398C33.5084 4.14692 33.4809 4.09948 33.5102 4.04311C33.5941 4.0156 33.6153 4.10098 33.6502 4.14708C34.5482 5.33282 35.0611 6.69931 35.2547 8.21731C35.5755 10.7331 35.2296 13.1495 34.3132 15.4684C33.6737 17.0868 32.7704 18.511 31.5402 19.6722C31.4553 19.7523 31.3457 19.8192 31.3047 20.0107C32.5241 19.5034 33.4758 18.6785 34.2871 17.6365C35.1058 16.5849 35.5863 15.3571 35.8561 14.0225C35.9721 14.0584 35.9534 14.139 35.9585 14.2034C36.1586 16.7127 35.6399 19.0165 34.2809 21.0683C33.1394 22.7919 31.6358 24.0369 29.8958 24.9646C29.1102 25.3835 28.2974 25.7267 27.4789 26.0566C27.4058 26.0861 27.3345 26.1208 27.2699 26.1873C28.2441 26.1308 29.1996 25.9778 30.1145 25.5832C31.0335 25.1869 31.8704 24.6291 32.6988 24.0308C32.62 24.3517 32.4774 24.6361 32.3237 24.9091C31.5419 26.2974 30.4883 27.3906 29.2574 28.3022C27.9556 29.2664 26.4798 29.765 25.0059 30.279C23.3139 30.869 21.7276 31.6818 20.3647 32.9524C19.4757 33.781 18.7426 34.7526 18.1616 35.8606C18.142 35.8979 18.1235 35.9361 18.1012 35.9715C18.0934 35.984 18.0761 35.9893 18.06 36C17.9528 35.9397 17.9227 35.8148 17.8691 35.7127C17.0231 34.1016 15.8174 32.89 14.3801 31.9253C12.9942 30.9952 11.4736 30.4299 9.93362 29.9068C8.49834 29.4193 7.15702 28.7231 5.97031 27.7006C4.90473 26.7825 4.02768 25.6888 3.38786 24.3762C3.34381 24.2858 3.30831 24.1905 3.28986 24.0661C4.10867 24.6694 4.94796 25.2192 5.86903 25.6066C6.80075 25.9984 7.76962 26.1566 8.80987 26.2254C8.71801 26.1029 8.63848 26.0827 8.56009 26.0535C7.19004 25.5428 5.85451 24.9453 4.6375 24.0772C2.85366 22.8048 1.47739 21.1424 0.641365 18.9821C0.337905 18.1979 0.155363 17.3788 0.0654069 16.531C-0.0161339 15.7625 -0.0128099 14.9957 0.0284558 14.2265C0.0315385 14.1691 0.0238942 14.107 0.110664 14.0184C0.656426 16.8261 2.15221 18.7604 4.49525 19.9745C4.55227 19.8058 4.46901 19.7623 4.41517 19.7088C2.4702 17.7758 1.35613 15.3479 0.84447 12.562C0.632898 11.41 0.585605 10.2426 0.651162 9.07553C0.748619 7.34055 1.18639 5.72333 2.17755 4.32524C2.25647 4.21392 2.31793 4.07879 2.48869 3.99423C2.41871 4.29742 2.35452 4.56059 2.29737 4.82557C1.93135 6.52286 2.14688 8.17014 2.65562 9.79289C2.92303 10.6458 3.23381 11.4793 3.58761 12.2935C3.62939 12.3897 3.64847 12.5105 3.78617 12.5723C3.81975 12.254 3.7273 11.965 3.67618 11.6806C3.49826 10.691 3.41724 9.69333 3.45995 8.68919C3.52862 7.07488 3.74757 5.48933 4.37594 4.00444C4.96666 2.60852 5.84535 1.4838 7.05104 0.674325C7.11785 0.629474 7.18072 0.576667 7.31622 0.581606C6.57502 1.59577 6.13153 2.72625 5.96602 3.97549C5.80373 5.20038 5.81149 6.42711 5.98609 7.69715C6.11903 7.53394 6.12639 7.38114 6.1569 7.24236C6.52937 5.54835 7.16953 4.00037 8.24864 2.69652C9.38689 1.32119 10.7587 0.375702 12.4465 0.0266463C12.4931 0.0170149 12.5401 0.00908071 12.5872 0.00431066C12.6009 0.00292294 12.6158 0.0152908 12.701 0.0513129C12.4198 0.203361 12.1774 0.331413 11.949 0.516074ZM7.51286 12.276C7.40854 11.9129 7.30421 11.5497 7.19988 11.1866C7.27941 11.5724 7.32955 11.9687 7.52024 12.3553C7.5663 12.5115 7.60639 12.6701 7.65939 12.8234C8.02437 13.879 8.52863 14.861 9.00972 15.8551C9.04798 15.9342 9.12114 15.9995 9.11143 16.0635C8.77991 15.7571 8.43708 15.4401 8.09425 15.1232C9.06158 16.4624 10.1099 17.7216 11.2532 18.8895C11.0647 18.5262 10.8397 18.1962 10.6144 17.8663C9.67042 16.4838 8.79023 15.0563 8.04252 13.5345C7.84767 13.1379 7.73585 12.6997 7.51286 12.276ZM23.7977 13.5624C23.8424 13.0489 23.7727 12.5435 23.6581 12.052C23.2503 10.3028 22.3406 8.96236 20.8827 8.08447C19.3718 7.17457 17.8027 7.01208 16.1924 7.71314C15.082 8.19659 14.3371 9.05509 14.1288 10.3827C14.0732 10.7373 14.0817 11.0977 14.1759 11.489C14.5112 10.4294 15.3763 10.2336 16.1906 9.91598C16.2395 10.3356 16.0779 10.644 15.8608 10.9304C15.7552 11.0698 15.62 11.1812 15.5455 11.3506C15.4525 11.5622 15.4804 11.7614 15.6056 11.9355C15.7327 12.1121 15.9042 12.1731 16.1146 12.1141C16.6404 11.9667 17.015 11.6164 17.257 11.0984C17.4396 10.7077 17.654 10.3486 17.9661 10.0674C18.6458 9.45485 19.9176 9.39775 20.7859 9.90497C22.162 10.7087 22.6242 12.3478 22.3607 13.7954C22.1494 14.9558 21.571 15.8767 20.8048 16.6782C20.0386 17.4798 19.1372 18.0848 18.2753 18.7469C17.2022 19.5712 16.2493 20.524 15.5205 21.7295C14.8338 22.8654 14.4014 24.0927 14.3485 25.4619C14.3085 26.4969 14.5596 27.4628 14.9608 28.3896C14.9811 28.4365 14.9991 28.4849 15.0225 28.5299C15.0451 28.5735 15.0733 28.6136 15.1383 28.7185C14.9193 27.636 14.8251 26.6324 14.9734 25.6041C15.0976 24.7426 15.6669 22.9928 15.9587 22.7841C15.4635 24.2433 15.3195 25.7211 15.5259 27.2495C15.6913 28.4743 16.6857 30.9027 17.0981 31.4103C16.7491 30.308 16.4396 29.1948 16.3978 28.0125C16.3501 26.6662 16.599 24.9024 16.9126 24.5875C16.8714 24.9409 16.8252 25.2711 16.7961 25.603C16.737 26.2779 16.7434 26.9587 16.8574 27.6207C17.1248 29.1737 17.7118 30.6042 18.359 32.0061C18.4279 32.1553 18.4808 32.3215 18.6151 32.4332C18.6741 32.3469 18.6312 32.2764 18.6174 32.2039C18.4869 31.5192 18.3201 30.844 18.1945 30.1574C17.8937 28.5125 17.8362 26.8595 18.0867 25.2087C18.4412 22.8717 19.4299 20.8831 20.9816 19.2286C21.0321 19.1747 21.0801 19.0843 21.1875 19.1459C21.1747 19.1794 21.1689 19.2152 21.1506 19.2397C20.642 19.9187 20.2036 20.6495 19.8046 21.4093C18.9447 23.0469 18.3894 24.7891 18.2998 26.6879C18.2494 27.7555 18.338 28.812 18.5526 29.8543C18.6003 30.0859 18.6227 30.335 18.8009 30.5762C18.785 30.0802 18.7738 29.6401 18.7601 29.1995C18.7216 27.9542 18.7448 26.7141 18.9203 25.4742C19.164 23.7527 19.7005 22.1612 20.5455 20.6926C21.0986 19.7312 21.7985 18.8841 22.3844 17.9475C23.2037 16.6376 23.7636 15.2255 23.7977 13.5624ZM22.0623 24.9967C21.9297 25.1333 21.7902 25.2639 21.7273 25.472C23.2488 23.9444 25.1404 23.0686 26.8911 21.9427C26.3951 22.0244 25.9735 22.33 25.5647 22.4469C25.7652 22.1992 25.9961 21.9101 26.2309 21.6248C26.464 21.3416 26.7042 21.0653 26.9353 20.7802C27.1633 20.499 27.3992 20.2231 27.5616 19.8851C27.4482 20.0457 27.2817 20.1374 27.1592 20.2822C26.2179 21.3942 25.1331 22.3196 24.0073 23.1963C23.3237 23.7286 22.6699 24.3067 22.0623 24.9967ZM21.8898 28.5531C21.2657 29.1912 20.7014 29.8825 20.2815 30.703C20.3231 30.6764 20.3512 30.6371 20.3801 30.5985C21.1625 29.5547 22.0443 28.6296 23.0713 27.8718C24.1275 27.0925 25.2695 26.4974 26.4397 25.9588C26.7123 25.8333 26.9803 25.6957 27.286 25.5463C27.1003 25.4524 26.973 25.5282 26.8516 25.5679C25.0126 26.1693 23.3497 27.1227 21.8898 28.5531ZM27.6113 14.8891C27.7568 14.5422 27.949 14.2158 27.9991 13.823C27.4609 14.827 26.9648 15.8546 26.3765 16.8243C25.7896 17.7916 25.0907 18.6642 24.4586 19.5935C25.7209 18.3223 26.8259 16.8992 27.8897 15.4352C27.54 15.6263 27.337 15.9953 27.0125 16.2221C27.2075 15.7898 27.4026 15.3575 27.6113 14.8891ZM9.68789 25.5716C10.5007 26.1273 11.3758 26.5407 12.2671 26.9173C11.3884 26.2617 10.4258 25.7896 9.40082 25.304C9.48548 25.4694 9.58337 25.4953 9.68789 25.5716Z" fill="url(#paint0_linear_14_274)"/>
<defs>
<linearGradient id="paint0_linear_14_274" x1="18" y1="0" x2="18" y2="36" gradientUnits="userSpaceOnUse">
<stop stop-color="#3DDEED"/>
<stop offset="1" stop-color="white"/>
</linearGradient>
</defs>
</svg>
